<svg width="30" height="30" viewBox="0 0 30 30" fill="none" xmlns="http://www.w3.org/2000/svg">
<g clip-path="url(#clip0_4344_2290)">
<path fill-rule="evenodd" clip-rule="evenodd" d="M29.9241 1.22779L29.102 1.09702L28.8862 0.292404L30.1265 -0.0407715L29.9241 1.22779ZM18.9126 12.7473L18.2038 13.1838L18.2021 13.1821L18.1996 13.178L18.1913 13.1646L18.163 13.1172L18.063 12.9447C17.9464 12.7407 17.834 12.5344 17.7257 12.3259C17.3828 11.6704 17.0839 10.9928 16.8311 10.2977C16.5496 9.51137 16.308 8.61096 16.2705 7.73971C16.2339 6.87179 16.3955 5.92973 17.0418 5.19092C17.6224 4.5279 18.7169 3.91735 19.8672 3.38927C21.0591 2.84036 22.4618 2.31395 23.7903 1.85833C25.436 1.29644 27.0982 0.784226 28.7746 0.32239L28.8579 0.299068L28.8871 0.290738L29.1036 1.09619L29.9257 1.22696L29.9207 1.25778L29.9066 1.34607C29.8234 1.85707 29.7363 2.3674 29.645 2.87701C29.4231 4.13025 29.181 5.37982 28.9187 6.62524C28.6222 8.02541 28.2774 9.49305 27.9117 10.7216C27.7488 11.2834 27.5578 11.8366 27.3395 12.3792C27.1496 12.8373 26.9247 13.2821 26.6515 13.5953C26.0667 14.2633 25.1563 14.4724 24.3609 14.5257C23.5313 14.5815 22.6117 14.4807 21.7846 14.3341C21.0469 14.2013 20.3164 14.0317 19.5956 13.826C19.3007 13.7429 19.0075 13.6541 18.7161 13.5595L18.6636 13.5411L18.6494 13.5361L18.6453 13.5353H18.6436L18.9126 12.7473ZM18.9126 12.7473L18.2038 13.1838L18.3604 13.4378L18.6436 13.5353L18.9126 12.7473ZM19.4724 12.0535C20.3254 12.3187 21.1935 12.5329 22.072 12.6949C22.8416 12.8306 23.6112 12.9073 24.2493 12.864C24.9231 12.819 25.2613 12.6541 25.3971 12.4991C25.4837 12.3992 25.6253 12.1626 25.8002 11.7411C25.9963 11.2522 26.1678 10.7538 26.3141 10.2477C26.6615 9.08157 26.9955 7.66308 27.2887 6.28123C27.57 4.94431 27.8277 3.60252 28.0616 2.25647L27.8043 2.33144C26.8805 2.60381 25.6328 2.98779 24.3309 3.43425C23.0265 3.88154 21.683 4.38713 20.5627 4.90272C19.3999 5.43747 18.6153 5.92307 18.2954 6.28873C18.0397 6.58026 17.9081 7.02921 17.9356 7.66808C17.9622 8.30361 18.1447 9.02577 18.3995 9.7346C18.6905 10.5367 19.0494 11.3125 19.4724 12.0535ZM3.53907 3.3243L3.32334 4.12892L2.5004 4.25969L2.29883 2.99196L3.53907 3.3243ZM11.6036 13.5969L12.3124 14.0326L12.3141 14.0309L12.3158 14.0276L12.3224 14.0167L12.3466 13.9768L12.4299 13.8352C12.8282 13.1396 13.1668 12.4115 13.4419 11.6587C13.6734 11.0123 13.875 10.2635 13.9058 9.53386C13.9375 8.80671 13.8025 7.99542 13.2411 7.35406C12.7447 6.786 11.826 6.27957 10.8931 5.84977C9.91772 5.40082 8.77243 4.97102 7.69044 4.60036C6.35028 4.14312 4.9967 3.72619 3.63153 3.35012L3.56323 3.33097L3.53907 3.3243L3.32334 4.12892L2.5004 4.25969L2.50456 4.28468L2.51622 4.35715L2.5612 4.62868C2.78589 5.976 3.03889 7.31844 3.32001 8.65511C3.56156 9.79457 3.8431 10.9915 4.14129 11.9952C4.29122 12.4966 4.44781 12.9639 4.6119 13.3579C4.76766 13.7327 4.9584 14.115 5.19829 14.3882C5.71471 14.9796 6.5085 15.1545 7.16569 15.1978C7.8587 15.2445 8.61917 15.1604 9.29801 15.0413C10.1505 14.8888 10.9911 14.6762 11.8135 14.4049L11.856 14.3907L11.8685 14.3866L11.8726 14.3849L11.6036 13.5969ZM11.6036 13.5969L12.3124 14.0326L12.1558 14.2874L11.8726 14.3849L11.6036 13.5969ZM11.043 12.9023C11.0958 12.8079 11.1574 12.6932 11.2279 12.5583C11.4262 12.1768 11.6727 11.657 11.8735 11.0956C12.0775 10.5276 12.2208 9.95699 12.2416 9.46306C12.2633 8.96413 12.1583 8.64678 11.9876 8.45021C11.7519 8.182 11.1438 7.79885 10.1968 7.36322C9.29385 6.94759 8.2077 6.53861 7.14986 6.17628C6.22838 5.86162 5.30028 5.56669 4.36618 5.2917L4.36951 5.31253C4.51111 6.11215 4.71268 7.19164 4.95007 8.31027C5.18746 9.43141 5.45817 10.5784 5.73803 11.5204C5.8788 11.9919 6.01707 12.3992 6.15034 12.719C6.29194 13.058 6.39855 13.2304 6.45186 13.2921C6.52016 13.3695 6.74089 13.5003 7.2773 13.5361C7.7779 13.5694 8.38928 13.5095 9.00898 13.4004C9.69679 13.2769 10.3761 13.1111 11.043 12.9023ZM9.21888 20.8427C9.00732 20.8543 8.90403 20.8843 8.87738 20.896C8.50006 21.0667 7.35393 21.4665 6.3644 21.8039C5.85631 21.978 5.36904 22.1412 5.00921 22.262L4.98589 22.2703V26.7707C5.13249 26.764 5.28991 26.7582 5.45067 26.7524C6.14034 26.7274 6.96079 26.7024 7.31645 26.7174C8.80908 26.7765 9.93021 27.1297 10.9681 27.457L10.9905 27.4645C11.9634 27.7711 12.8647 28.0526 14.0449 28.1417C14.3781 28.1667 14.7021 28.1992 15.0045 28.2292H15.0086C16.1698 28.3458 16.9344 28.4041 17.5266 28.1892C17.9872 28.0218 19.6739 27.2396 21.3748 26.3842C22.2161 25.9611 23.0407 25.5305 23.6962 25.1615C24.0252 24.9766 24.3042 24.8116 24.5183 24.6734C24.6244 24.6045 24.7099 24.5462 24.7749 24.4984L24.8498 24.4401L24.8731 24.4201C24.9564 24.336 25.0447 24.0428 24.9015 23.7671C24.834 23.6382 24.7226 23.5377 24.5874 23.4839C24.4209 23.4115 24.1377 23.3556 23.6879 23.4298C22.6733 23.5964 21.4614 24.0845 20.2512 24.5767L20.2345 24.5842C19.6398 24.8258 19.0434 25.0682 18.5145 25.2448C18.0064 25.4138 17.4425 25.5654 16.9511 25.5363C16.2764 25.4946 15.0928 25.3197 14.1166 25.1615C13.5556 25.0708 12.9953 24.9758 12.4357 24.8766L12.3274 24.8574L12.2891 24.8499L12.4474 23.1974L16.2539 23.2432H16.2622C16.3067 23.2384 16.3507 23.2301 16.3938 23.2182C16.5254 23.1849 16.7512 23.1024 17.0352 22.9017C17.1226 22.8392 17.2376 22.7243 17.345 22.5702C17.3895 22.5058 17.4272 22.443 17.4583 22.3819C16.9943 22.3521 16.5331 22.2869 16.079 22.187C15.8317 22.1332 15.5864 22.0707 15.3435 21.9996L15.3152 21.9913L10.6532 20.9535L10.6091 20.946L10.4341 20.9193C10.2436 20.8913 10.0522 20.8699 9.86025 20.8552C9.64695 20.8373 9.43272 20.8331 9.21888 20.8427ZM10.8165 20.138L10.9672 19.3192L10.9822 19.3217L15.745 20.3812L15.7799 20.3921L15.7866 20.3946L15.8183 20.4037L15.9499 20.4412C16.0656 20.4728 16.2322 20.5162 16.4305 20.5595C16.8353 20.6469 17.3417 20.7277 17.8098 20.7277C18.2788 20.7277 18.7885 20.9026 19.0634 21.4007C19.2983 21.8272 19.24 22.2887 19.1575 22.5935C19.0808 22.863 18.9667 23.1204 18.8185 23.3581C19.0723 23.2582 19.3405 23.1505 19.6231 23.035L19.6748 23.0133C20.8226 22.5469 22.1986 21.9871 23.4172 21.7864C24.8332 21.5548 25.8952 22.0629 26.3808 23.0025C26.8089 23.8313 26.7139 24.9241 26.0601 25.5888C25.896 25.7553 25.6519 25.9244 25.4187 26.0752C25.1216 26.2631 24.8194 26.4428 24.5125 26.6141C23.8253 27.0006 22.9749 27.4445 22.1219 27.8735C20.4377 28.7206 18.6636 29.5494 18.0938 29.756C17.106 30.1141 15.9632 30 14.9478 29.8984L14.8421 29.8876C14.5348 29.8561 14.2271 29.8283 13.9192 29.8043C12.5365 29.6993 11.477 29.3653 10.5091 29.0605L10.4883 29.0538C9.44711 28.7256 8.50922 28.4332 7.24982 28.3824C6.97328 28.3716 6.22863 28.3916 5.51064 28.4183C5.10632 28.4329 4.70206 28.4493 4.29788 28.4674L4.19043 28.4724L3.31918 28.5124V21.0692L4.04967 20.8268C4.6424 20.6299 5.23435 20.4305 5.82549 20.2288C6.86167 19.8748 7.90617 19.5075 8.19104 19.3792C8.49673 19.2409 8.84406 19.196 9.12226 19.1793C9.41796 19.1626 9.72198 19.1751 9.98769 19.1951C10.3075 19.2207 10.626 19.2604 10.9422 19.3142L10.9597 19.3176H10.9647L10.9664 19.3184H10.9681L10.8165 20.138Z" fill="#6BB256"/>
<path fill-rule="evenodd" clip-rule="evenodd" d="M24.2685 6.04505C24.3516 6.11615 24.4199 6.20292 24.4695 6.30042C24.5191 6.39792 24.549 6.50424 24.5575 6.6133C24.566 6.72236 24.553 6.83202 24.5191 6.93603C24.4852 7.04005 24.4312 7.13637 24.3601 7.2195C21.8771 10.1165 18.7861 14.3619 17.4217 17.8128C17.3815 17.9145 17.3216 18.0073 17.2454 18.0859C17.1693 18.1645 17.0785 18.2273 16.9781 18.2708C16.8777 18.3143 16.7697 18.3375 16.6603 18.3393C16.5509 18.341 16.4423 18.3212 16.3405 18.2809C16.2388 18.2407 16.146 18.1808 16.0674 18.1047C15.9889 18.0285 15.926 17.9377 15.8826 17.8373C15.8391 17.7369 15.8158 17.6289 15.8141 17.5195C15.8124 17.4102 15.8322 17.3015 15.8724 17.1998C17.3409 13.4857 20.5794 9.07029 23.094 6.13584C23.2378 5.96818 23.4424 5.86452 23.6626 5.84765C23.8829 5.83078 24.1008 5.90209 24.2685 6.04589M7.80126 8.71712C7.71536 8.78492 7.64367 8.86898 7.59027 8.96449C7.53688 9.06 7.50282 9.1651 7.49006 9.27378C7.4773 9.38246 7.48607 9.49259 7.51589 9.59788C7.5457 9.70317 7.59597 9.80155 7.66382 9.8874C9.53127 12.2571 11.5703 15.2898 12.5382 17.8053C12.6213 18.0061 12.7795 18.1664 12.9792 18.2522C13.1789 18.3379 13.4041 18.3422 13.6069 18.2642C13.8097 18.1861 13.974 18.0319 14.0647 17.8345C14.1554 17.637 14.1654 17.412 14.0924 17.2073C13.0338 14.4552 10.8706 11.2642 8.97154 8.85622C8.83487 8.68274 8.63491 8.57063 8.41561 8.54455C8.19631 8.51846 7.9748 8.58054 7.80126 8.71712Z" fill="#6BB256"/>
<path d="M-0.0117188 19.1714H4.98592V29.9996H-0.0117188V19.1714Z" fill="#6BB256"/>
</g>
<defs>
<clipPath id="clip0_4344_2290">
<rect width="30" height="30" fill="white"/>
</clipPath>
</defs>
</svg>
