<svg width="100" height="34" viewBox="0 0 100 34" fill="none" xmlns="http://www.w3.org/2000/svg">
<g clip-path="url(#clip0_2136_8182)">
<path d="M41.7557 23.4317V21.5508C41.2618 21.5508 40.9432 21.5189 40.8317 21.4711C40.7201 21.4233 40.6723 21.3117 40.6723 21.1523C40.6723 21.0567 40.6723 20.9451 40.6883 20.8654C40.7042 20.7697 40.7361 20.6741 40.752 20.5944L41.214 19.1917H44.7667L45.2287 20.5944C45.2605 20.6741 45.2765 20.7697 45.2924 20.8654C45.2924 20.961 45.3083 21.0567 45.3083 21.1523C45.3083 21.3117 45.2605 21.4073 45.1331 21.4711C45.0216 21.5189 44.7189 21.5508 44.225 21.5508V23.4158H51.2506V21.5508H50.9957C50.6612 21.5508 50.3904 21.4552 50.1514 21.232C49.9284 21.0248 49.7372 20.6741 49.5619 20.1959L46.4076 10.2334H41.1025L37.6136 20.1959C37.4542 20.6741 37.2471 21.0248 37.0241 21.232C36.8011 21.4552 36.5143 21.5508 36.1797 21.5508H35.9567V23.4317H41.7397H41.7557ZM41.8194 17.3108L42.9505 13.3258L44.1453 17.3108H41.8194Z" fill="#004C9C"/>
<path d="M6.16537 23.4317V21.5508C5.6715 21.5508 5.35288 21.5189 5.25729 21.4711C5.14578 21.4233 5.09798 21.3117 5.09798 21.1523C5.09798 21.0567 5.09798 20.9451 5.11391 20.8654C5.12984 20.7697 5.14578 20.6741 5.17764 20.5944L5.63964 19.1917H9.1923L9.6543 20.5944C9.68616 20.6741 9.70209 20.7697 9.71802 20.8654C9.71802 20.961 9.73396 21.0567 9.73396 21.1523C9.73396 21.3117 9.68616 21.4073 9.57464 21.4711C9.46313 21.5189 9.16043 21.5508 8.66657 21.5508V23.4158H15.6922V21.5508H15.4373C15.1028 21.5508 14.8319 21.4552 14.6089 21.232C14.3859 21.0248 14.1788 20.6741 14.0194 20.1959L10.8491 10.2334H5.54405L2.05513 20.1959C1.89582 20.6741 1.68871 21.0248 1.46567 21.232C1.24264 21.4552 0.971807 21.5508 0.637253 21.5508H0.398285V23.4317H6.1813H6.16537ZM6.2291 17.3108L7.34428 13.3258L8.55505 17.3108H6.2291Z" fill="#004C9C"/>
<path d="M99.7769 10.2655V15.175H97.69C97.5466 14.5374 97.4032 14.0432 97.2598 13.6766C97.1005 13.31 96.9253 13.0231 96.7022 12.8159C96.4473 12.5768 96.1446 12.4014 95.7942 12.2739C95.4277 12.1783 94.8542 12.1145 94.0417 12.1145H91.9707V15.7329H92.4805C93.0699 15.7329 93.4841 15.5894 93.739 15.3025C93.978 14.9996 94.0895 14.5055 94.0895 13.7563V13.6447H95.7464V19.67H94.0895C94.0736 18.7455 93.9461 18.1557 93.739 17.8688C93.516 17.5978 93.1177 17.4544 92.5123 17.4544H91.9866V21.5669H94.3126C95.2206 21.5669 95.8419 21.5031 96.1765 21.4075C96.5111 21.2959 96.7819 21.1206 96.9731 20.8496C97.1802 20.5308 97.3395 20.1482 97.451 19.7019C97.5784 19.2556 97.6422 18.6818 97.69 17.9963H99.7769V23.4319H86.3788V21.5669H86.6019C87.032 21.5669 87.3188 21.5191 87.4622 21.4075C87.6055 21.3119 87.6693 21.009 87.6693 20.5308V13.2303C87.6693 12.7202 87.6055 12.4014 87.4781 12.2898C87.3506 12.1783 87.0479 12.1145 86.5859 12.1145H86.3788V10.2495H99.7769V10.2655Z" fill="#004C9C"/>
<path d="M71.9452 13.1506C71.9452 12.6724 71.8815 12.3695 71.7381 12.2739C71.5947 12.1783 71.308 12.1145 70.8778 12.1145H70.6548V10.2495H78.1106C80.7392 10.2495 82.6987 10.7915 83.9732 11.8754C85.2637 12.9593 85.9009 14.6171 85.9009 16.8327C85.9009 19.0484 85.2637 20.7221 83.9732 21.806C82.6987 22.8899 80.7392 23.4319 78.1106 23.4319H70.6548V21.551H70.8778C71.3239 21.551 71.6106 21.4872 71.7381 21.4075C71.8815 21.2959 71.9452 21.009 71.9452 20.5149V13.1346V13.1506ZM76.3422 21.5031H78.3017C79.2576 21.5031 79.9426 21.1525 80.3569 20.4352C80.7711 19.7179 80.9782 18.5224 80.9782 16.8327C80.9782 15.1431 80.7711 13.9476 80.3569 13.2303C79.9426 12.4971 79.2576 12.1464 78.3017 12.1464H76.3422V21.5031Z" fill="#004C9C"/>
<path d="M26.8919 12.3217C25.4262 12.3855 24.2473 13.3737 23.9605 14.7924C23.9287 14.9518 23.8968 15.1112 23.865 15.2387H21.5231L23.0365 10.2495H35.6381L37.1516 15.2387H34.7937C34.7778 15.0953 34.73 14.9359 34.6982 14.7924C34.4273 13.3897 33.2325 12.3855 31.7668 12.3217H31.4801V20.4352C31.4801 20.9452 31.5279 21.2162 31.6872 21.3756C31.8465 21.551 32.1173 21.551 32.5793 21.551H32.8183V23.4319H25.8086V21.551H26.1272C26.5255 21.551 26.7804 21.551 26.9556 21.3756C27.1149 21.2162 27.1627 20.9452 27.1627 20.4352V12.3217H26.8759H26.8919Z" fill="#004C9C"/>
<path d="M68.1218 20.2758C68.074 20.6902 67.9624 20.9293 67.9624 20.9293C67.8669 21.1525 67.7235 21.264 67.5801 21.264C67.4049 21.264 67.2774 21.1843 67.1977 20.9931C67.1181 20.8177 67.0862 20.4989 67.0862 20.0367C67.0862 18.5064 66.9269 18.1717 66.6242 17.7413C66.3215 17.3109 65.6524 17.279 65.6524 17.279C66.2897 17.0718 66.8473 16.7371 67.3411 16.3067C68.0421 15.685 68.4085 14.8721 68.4085 13.8838C68.4085 13.2781 68.2811 12.7043 67.9943 12.2261C67.7235 11.7319 67.3411 11.3334 66.8313 11.0146C66.3375 10.6958 65.7799 10.4886 65.1586 10.393C64.5372 10.2973 63.9797 10.2495 63.4539 10.2495H52.7641V12.1145H52.9871C53.4491 12.1145 53.7518 12.1783 53.8793 12.2898C54.0067 12.4174 54.0705 12.7202 54.0705 13.2303V20.4192C54.0705 20.9293 54.0067 21.2481 53.8793 21.3756C53.7518 21.5031 53.4491 21.551 52.9871 21.551H52.7641V23.4319H59.8216V21.551H59.5189C59.0569 21.551 58.7702 21.4872 58.6427 21.3756C58.5153 21.2481 58.4515 20.9452 58.4515 20.4192V17.4703H61.1758C61.8927 17.4703 62.3706 17.5819 62.5936 17.8051C62.8167 18.0442 62.9282 18.5861 62.9282 19.4469V20.3714C62.9282 21.4394 63.199 22.2045 63.7248 22.6986C64.2505 23.1928 65.0948 23.4319 66.2737 23.4319C67.373 23.4319 68.1695 23.1609 68.6475 22.6189C69.1095 22.1248 69.3644 21.3597 69.3803 20.2758H68.1058H68.1218ZM63.1034 14.8083C62.9123 15.0793 62.6096 15.2865 62.2113 15.43C61.8289 15.5735 61.2236 15.6532 60.4429 15.6532H58.4356V12.1464H60.666C61.4466 12.1464 61.9883 12.2101 62.3387 12.3377C62.6892 12.4652 62.9441 12.6405 63.1353 12.8956C63.3105 13.1506 63.4061 13.4694 63.4061 13.8201C63.4061 14.2026 63.3105 14.5374 63.1034 14.8243" fill="#004C9C"/>
<path d="M3.52078 6.0572C2.53305 6.0572 1.76835 5.78622 1.21076 5.2602C0.653169 4.73418 0.382339 3.985 0.382339 3.04454C0.382339 2.10408 0.669101 1.37084 1.22669 0.812939C1.80021 0.27098 2.54898 0 3.52078 0C4.22175 0 4.77934 0.20722 5.22542 0.6376L5.27321 0.68542L5.40066 0.12752H6.18129V2.45476H5.40066C5.38473 1.9128 5.22542 1.48242 4.90679 1.1955C4.58817 0.908579 4.15803 0.765119 3.58451 0.765119C3.09064 0.765119 2.70829 0.956399 2.43746 1.3549C2.16663 1.73746 2.03918 2.3113 2.03918 3.06048C2.03918 3.80966 2.18256 4.36756 2.45339 4.75012C2.72422 5.13268 3.1225 5.3399 3.64823 5.3399C3.99872 5.3399 4.28548 5.21238 4.50851 4.95734C4.6041 4.84576 4.66783 4.7023 4.69969 4.5429C4.73155 4.3835 4.73155 4.24004 4.69969 4.11252C4.66783 4.04876 4.63596 4.00094 4.58817 3.95312C4.49258 3.87342 4.28548 3.84154 3.98279 3.84154H3.48892V3.15612H7.1053V3.84154H6.73888C6.51584 3.84154 6.35653 3.87342 6.27688 3.95312C6.19722 4.03282 6.16536 4.17628 6.16536 4.41538V5.96156H5.51218L5.22542 5.27614C4.79528 5.80216 4.20582 6.07314 3.47299 6.07314" fill="#004C9C"/>
<path d="M8.09305 4.79813V3.02879C8.09305 2.85345 8.06119 2.72593 8.01339 2.66217C7.9656 2.59841 7.85408 2.56653 7.67884 2.56653H7.42394V1.88111H9.38347V2.43901C9.4472 2.34337 9.51092 2.26367 9.59058 2.19991C9.86141 1.91299 10.1482 1.76953 10.4509 1.76953C10.7376 1.76953 10.9766 1.84923 11.1359 2.02457C11.3111 2.18397 11.3908 2.42307 11.3908 2.69405C11.3908 2.91721 11.3271 3.10849 11.1837 3.26789C11.0562 3.42729 10.881 3.50699 10.6898 3.50699C10.4987 3.50699 10.3234 3.44323 10.196 3.31571C10.0526 3.18819 9.98886 3.02879 9.98886 2.85345C9.98886 2.67811 10.0526 2.51871 10.196 2.39119L10.2438 2.35931H10.2119C10.0685 2.35931 9.9092 2.45495 9.76582 2.63029C9.7021 2.70999 9.63837 2.80563 9.57465 2.90127C9.51092 3.01285 9.46313 3.12443 9.43127 3.25195C9.3994 3.37947 9.38347 3.52293 9.38347 3.68233V4.78219C9.38347 4.95753 9.41533 5.08505 9.47906 5.14881C9.54278 5.21257 9.67023 5.24445 9.86141 5.24445H10.1641V5.92987H7.37614V5.24445H7.64697C7.82222 5.24445 7.93374 5.21257 7.99746 5.14881C8.06118 5.08505 8.07712 4.97347 8.07712 4.78219" fill="#004C9C"/>
<path d="M13.5574 1.88069V4.12822C13.5574 4.4789 13.6052 4.73394 13.7008 4.89334C13.7964 5.05274 13.9557 5.13244 14.1628 5.13244C14.354 5.13244 14.5452 5.06868 14.7045 4.9571C14.8479 4.86146 14.9912 4.70206 15.1187 4.51078V3.01243C15.1187 2.83709 15.1028 2.70957 15.055 2.64581C15.0072 2.58205 14.9275 2.55017 14.7841 2.55017H14.5611V1.86475H16.3932V4.78176C16.3932 4.9571 16.4251 5.08462 16.4728 5.14838C16.5366 5.21214 16.6481 5.24402 16.8233 5.24402H17.1101V5.92944H15.1028V5.40342C15.0072 5.49906 14.8957 5.5947 14.7682 5.69034C14.4177 5.92944 14.0354 6.05696 13.6212 6.05696C13.1751 6.05696 12.8405 5.92944 12.6016 5.65846C12.3626 5.38748 12.2352 5.02086 12.2352 4.52672V3.02837C12.2352 2.85303 12.2033 2.72551 12.1555 2.66175C12.0918 2.59799 11.9803 2.56611 11.8209 2.56611H11.5501V1.88069H13.5256H13.5574Z" fill="#004C9C"/>
<path d="M18.1616 3.02879C18.1616 2.85345 18.1297 2.72593 18.0819 2.66217C18.0182 2.59841 17.9067 2.56653 17.7473 2.56653H17.4765V1.88111H19.452V2.42307L19.5316 2.34337C19.8662 1.96081 20.3282 1.76953 20.9017 1.76953C21.4115 1.76953 21.8257 1.96081 22.1284 2.32743C22.4311 2.69405 22.5745 3.18819 22.5745 3.82579C22.5745 4.51121 22.3993 5.05317 22.0647 5.45167C21.7301 5.85017 21.2522 6.05739 20.6787 6.05739C20.1689 6.05739 19.7706 5.86611 19.452 5.49949V6.83845C19.452 7.01379 19.4838 7.14131 19.5476 7.20507C19.6113 7.26883 19.7228 7.30071 19.914 7.30071H20.2008V7.98613H17.4447V7.30071H17.7314C17.9067 7.30071 18.0341 7.26883 18.0819 7.20507C18.1456 7.14131 18.1775 7.02973 18.1775 6.83845V3.02879H18.1616ZM20.3123 5.30821C20.615 5.30821 20.838 5.19663 20.9973 4.95753C21.1566 4.71843 21.2363 4.38369 21.2363 3.92143C21.2363 3.45917 21.1566 3.12443 20.9973 2.88533C20.838 2.64623 20.615 2.53465 20.3123 2.53465C20.0096 2.53465 19.7865 2.64623 19.6272 2.88533C19.4679 3.12443 19.3883 3.47511 19.3883 3.92143C19.3883 4.36775 19.4679 4.71843 19.6272 4.95753C19.7865 5.19663 20.0096 5.30821 20.2963 5.30821" fill="#004C9C"/>
<path d="M23.6737 5.46761C23.2595 5.08505 23.0524 4.55903 23.0524 3.90549C23.0524 3.25195 23.2595 2.72593 23.6737 2.34337C24.0879 1.96081 24.6614 1.76953 25.3624 1.76953C26.0634 1.76953 26.6369 1.96081 27.067 2.34337C27.4812 2.72593 27.6883 3.25195 27.6883 3.90549C27.6883 4.55903 27.4812 5.08505 27.067 5.46761C26.6528 5.85017 26.0793 6.04145 25.3624 6.04145C24.6455 6.04145 24.0879 5.85017 23.6737 5.46761ZM26.1112 4.97347C26.2705 4.75031 26.3501 4.39963 26.3501 3.92143C26.3501 3.44323 26.2705 3.09255 26.1112 2.86939C25.9518 2.64623 25.7129 2.53465 25.3624 2.53465C25.0119 2.53465 24.7729 2.64623 24.6136 2.86939C24.4543 3.09255 24.3747 3.44323 24.3747 3.92143C24.3747 4.39963 24.4543 4.75031 24.6136 4.97347C24.7729 5.19663 25.0119 5.30821 25.3624 5.30821C25.7129 5.30821 25.9518 5.19663 26.1112 4.97347Z" fill="#004C9C"/>
<path d="M49.8168 28.1495C49.9443 28.2452 50.0399 28.3249 50.1036 28.4364L50.5974 27.9423C50.5178 27.8307 50.4381 27.7351 50.3585 27.6554C50.2788 27.5757 50.1832 27.5119 50.0717 27.4641C49.9761 27.4163 49.8646 27.3844 49.7372 27.3525C49.6097 27.3366 49.4823 27.3206 49.3229 27.3206C49.1158 27.3206 48.9247 27.3525 48.7494 27.4163C48.5742 27.48 48.4308 27.5597 48.3034 27.6873C48.1759 27.7988 48.0803 27.9423 48.0166 28.1017C47.9529 28.2611 47.9051 28.4524 47.9051 28.6437V30.4449C47.9051 30.8753 48.0325 31.21 48.3034 31.4332C48.5583 31.6563 48.9087 31.7679 49.3389 31.7679C49.5938 31.7679 49.8168 31.7201 50.0239 31.6404C50.2151 31.5607 50.4063 31.4172 50.5815 31.2259L50.1195 30.668C50.1195 30.668 49.9921 30.7796 49.9443 30.8274C49.8965 30.8753 49.8327 30.9231 49.785 30.955C49.7212 30.9868 49.6575 31.0187 49.5938 31.0347C49.5141 31.0506 49.4345 31.0665 49.3389 31.0665C48.9087 31.0665 48.7016 30.8593 48.7016 30.4449V28.6437C48.7016 28.4524 48.7654 28.293 48.8769 28.1814C48.9884 28.0698 49.1477 28.022 49.3389 28.022C49.5301 28.022 49.6894 28.0698 49.8168 28.1655V28.1495ZM53.7837 27.3047H53.6881C53.481 27.3047 53.2898 27.3366 53.0986 27.4003C52.9234 27.4641 52.7641 27.5438 52.6366 27.6554C52.5092 27.767 52.3977 27.9104 52.318 28.0698C52.2384 28.2292 52.2065 28.4205 52.2065 28.6118V30.4289C52.2065 30.6521 52.2384 30.8434 52.318 31.0028C52.3977 31.1622 52.4933 31.3056 52.6207 31.4172C52.7482 31.5288 52.9075 31.6085 53.0986 31.6723C53.2739 31.7201 53.481 31.752 53.6881 31.752H53.7677C53.9749 31.752 54.182 31.7201 54.3572 31.6723C54.5324 31.6085 54.6918 31.5288 54.8351 31.4172C54.9626 31.3056 55.0741 31.1622 55.1538 31.0028C55.2334 30.8434 55.2653 30.6521 55.2653 30.4289V28.6118C55.2653 28.4046 55.2334 28.2133 55.1538 28.0539C55.0741 27.8945 54.9626 27.751 54.8351 27.6394C54.7077 27.5279 54.5484 27.4482 54.3731 27.3844C54.1979 27.3206 54.0067 27.2888 53.7837 27.2888V27.3047ZM54.4847 30.4289C54.4847 30.6521 54.4209 30.7956 54.2935 30.9071C54.166 31.0028 53.9908 31.0506 53.7837 31.0506H53.704C53.4969 31.0506 53.3217 31.0028 53.1942 30.9071C53.0668 30.8115 53.0031 30.6521 53.0031 30.4289V28.6118C53.0031 28.4046 53.0668 28.2611 53.2102 28.1495C53.3376 28.0379 53.5128 27.9901 53.704 27.9901H53.7996C54.0067 27.9901 54.166 28.0379 54.2935 28.1495C54.4209 28.2611 54.5006 28.4046 54.5006 28.6118V30.413L54.4847 30.4289ZM57.1133 27.3685V31.6882H57.8143V28.2611L58.7383 30.8912H59.1525L60.0287 28.2611V31.7041H60.7297V27.3844H59.7419L58.9135 29.5841L58.101 27.3844H57.1133V27.3685ZM64.9196 30.3971C64.9196 30.6202 64.8559 30.7956 64.7284 30.9071C64.601 31.0187 64.4257 31.0665 64.2027 31.0665C63.9796 31.0665 63.8044 31.0187 63.6769 30.9071C63.5495 30.7956 63.4858 30.6362 63.4858 30.3971V27.3844H62.7051V30.3971C62.7051 30.6202 62.737 30.8274 62.8167 30.9868C62.8804 31.1622 62.9919 31.3056 63.1193 31.4172C63.2468 31.5288 63.4061 31.6244 63.5973 31.6723C63.7885 31.736 63.9796 31.752 64.2027 31.752C64.4257 31.752 64.6328 31.7201 64.824 31.6563C65.0152 31.5926 65.1585 31.5129 65.3019 31.4013C65.4294 31.2897 65.5409 31.1462 65.6046 30.9709C65.6843 30.7956 65.7161 30.6043 65.7161 30.3811V27.3685H64.9355V30.3811L64.9196 30.3971ZM70.0176 30.8753L68.7909 27.3685H67.6597V31.6882H68.3607V28.2452L69.4759 31.6882H70.7185V27.3685H70.0176V30.8753ZM72.917 31.6882H73.6977V27.3685H72.917V31.6882ZM77.6804 28.1495C77.8079 28.2452 77.9035 28.3249 77.9672 28.4364L78.477 27.9423C78.3973 27.8307 78.3177 27.7351 78.238 27.6554C78.1584 27.5757 78.0628 27.5119 77.9513 27.4641C77.8557 27.4163 77.7442 27.3844 77.6167 27.3525C77.4893 27.3366 77.3618 27.3206 77.2025 27.3206C76.9954 27.3206 76.8042 27.3525 76.629 27.4163C76.4537 27.48 76.3104 27.5597 76.1829 27.6873C76.0555 27.7988 75.9599 27.9423 75.8802 28.1017C75.8165 28.2611 75.7687 28.4524 75.7687 28.6437V30.4449C75.7687 30.8753 75.8962 31.21 76.167 31.4332C76.4219 31.6563 76.7724 31.7679 77.2025 31.7679C77.4574 31.7679 77.6804 31.7201 77.8876 31.6404C78.0787 31.5607 78.2699 31.4172 78.4611 31.2259L77.9991 30.668C77.9991 30.668 77.8716 30.7796 77.8238 30.8274C77.776 30.8753 77.7123 30.9231 77.6645 30.955C77.6008 30.9868 77.5371 31.0187 77.4733 31.0347C77.3937 31.0506 77.314 31.0665 77.2184 31.0665C76.7883 31.0665 76.5812 30.8593 76.5812 30.4449V28.6437C76.5812 28.4524 76.6449 28.293 76.7564 28.1814C76.868 28.0698 77.0273 28.022 77.2184 28.022C77.4096 28.022 77.5689 28.0698 77.7123 28.1655L77.6804 28.1495ZM81.0579 27.3525L79.8949 31.6882H80.7074L80.9623 30.668H82.0934L82.3483 31.6882H83.1448L82.0137 27.3525H81.0419H81.0579ZM81.1375 30.0304L81.5517 28.1495L81.95 30.0304H81.1375ZM86.6019 28.1495C86.7294 28.2452 86.8249 28.3249 86.8887 28.4364L87.3985 27.9423C87.3188 27.8307 87.2392 27.7351 87.1595 27.6554C87.0798 27.5757 86.9843 27.5119 86.8727 27.4641C86.7771 27.4163 86.6656 27.3844 86.5382 27.3525C86.4107 27.3366 86.2833 27.3206 86.124 27.3206C85.9169 27.3206 85.7257 27.3525 85.5504 27.4163C85.3752 27.48 85.2318 27.5597 85.1044 27.6873C84.9769 27.7988 84.8813 27.9423 84.8017 28.1017C84.738 28.2611 84.6902 28.4524 84.6902 28.6437V30.4449C84.6902 30.8753 84.8176 31.21 85.0884 31.4332C85.3433 31.6563 85.6938 31.7679 86.124 31.7679C86.3789 31.7679 86.6019 31.7201 86.809 31.6404C87.0002 31.5607 87.1914 31.4172 87.3666 31.2259L86.9046 30.668C86.9046 30.668 86.7771 30.7796 86.7294 30.8274C86.6816 30.8753 86.6178 30.9231 86.57 30.955C86.5063 30.9868 86.4426 31.0187 86.3789 31.0347C86.2992 31.0506 86.2196 31.0665 86.124 31.0665C85.6938 31.0665 85.4867 30.8593 85.4867 30.4449V28.6437C85.4867 28.4524 85.5504 28.293 85.662 28.1814C85.7735 28.0698 85.9328 28.022 86.124 28.022C86.3151 28.022 86.4745 28.0698 86.6178 28.1655L86.6019 28.1495ZM86.0125 31.6882L85.9169 32.3099C85.9169 32.3099 86.0284 32.3417 86.0762 32.3577C86.124 32.3736 86.1558 32.3896 86.1877 32.4214C86.2196 32.4533 86.2355 32.4852 86.2514 32.533C86.2514 32.5808 86.2674 32.6287 86.2674 32.6924C86.2674 32.804 86.2355 32.8837 86.1558 32.9315C86.0762 32.9793 86.0125 33.0272 85.9169 33.075L86.124 33.4894C86.2514 33.4416 86.3629 33.3938 86.4585 33.346C86.5541 33.2981 86.6338 33.2503 86.7134 33.1866C86.7772 33.1228 86.8409 33.059 86.8727 32.9793C86.9046 32.8996 86.9365 32.804 86.9365 32.6924C86.9365 32.5968 86.9365 32.5171 86.8887 32.4374C86.8568 32.3736 86.8249 32.3099 86.7772 32.262C86.7294 32.2142 86.6816 32.1664 86.6338 32.1505C86.586 32.1186 86.5382 32.1026 86.5063 32.0708L86.57 31.7041H86.0125V31.6882ZM90.2342 27.3525L89.0712 31.6882H89.8837L90.1386 30.668H91.2697L91.5246 31.6882H92.3212L91.1901 27.3525H90.2183H90.2342ZM90.2979 30.0304L90.7122 28.1495L91.1104 30.0304H90.2979ZM90.521 26.7149C90.521 26.7149 90.6325 26.7627 90.6962 26.7946C90.7599 26.8265 90.8077 26.8584 90.8874 26.8743C90.9511 26.9062 91.0308 26.9062 91.1104 26.9062C91.1901 26.9062 91.2538 26.8903 91.3016 26.8584C91.3494 26.8265 91.3972 26.7787 91.445 26.7309C91.4928 26.683 91.5246 26.6193 91.5565 26.5396C91.5884 26.4758 91.6043 26.3961 91.6202 26.3164L91.2857 26.0933C91.2857 26.0933 91.2379 26.2048 91.206 26.2686C91.1742 26.3324 91.1104 26.3642 91.0308 26.3642C90.9989 26.3642 90.967 26.3642 90.9193 26.3324C90.8715 26.3005 90.8237 26.2845 90.7599 26.2527C90.6962 26.2208 90.6484 26.2048 90.5688 26.173C90.505 26.1411 90.4413 26.1411 90.3617 26.1411C90.2183 26.1411 90.1227 26.1889 90.0271 26.2686C89.9475 26.3483 89.8519 26.4918 89.7563 26.6671L90.059 26.9381C90.0908 26.8584 90.1386 26.7946 90.1864 26.7468C90.2342 26.699 90.282 26.683 90.3139 26.683C90.3935 26.683 90.4573 26.683 90.505 26.7149H90.521ZM95.4437 27.3047H95.3481C95.141 27.3047 94.9498 27.3366 94.7746 27.4003C94.5994 27.4641 94.44 27.5438 94.3126 27.6554C94.1852 27.767 94.0736 27.9104 93.994 28.0698C93.9143 28.2292 93.8825 28.4205 93.8825 28.6118V30.4289C93.8825 30.6521 93.9143 30.8434 93.994 31.0028C94.0736 31.1622 94.1692 31.3056 94.3126 31.4172C94.44 31.5288 94.5994 31.6085 94.7905 31.6723C94.9658 31.7201 95.1729 31.752 95.38 31.752H95.4596C95.6667 31.752 95.8739 31.7201 96.0491 31.6723C96.2243 31.6085 96.3837 31.5288 96.5111 31.4172C96.6386 31.3056 96.7501 31.1622 96.8297 31.0028C96.9094 30.8434 96.9412 30.6521 96.9412 30.4289V28.6118C96.9412 28.4046 96.9094 28.2133 96.8297 28.0539C96.7501 27.8945 96.6386 27.751 96.5111 27.6394C96.3837 27.5279 96.2243 27.4482 96.0491 27.3844C95.8739 27.3206 95.6827 27.2888 95.4756 27.2888L95.4437 27.3047ZM96.1447 30.4289C96.1447 30.6521 96.081 30.7956 95.9535 30.9071C95.8261 31.0028 95.6508 31.0506 95.4437 31.0506H95.3641C95.157 31.0506 94.9817 31.0028 94.8543 30.9071C94.7268 30.8115 94.6631 30.6521 94.6631 30.4289V28.6118C94.6631 28.4046 94.7268 28.2611 94.8702 28.1495C94.9976 28.0379 95.1729 27.9901 95.3641 27.9901H95.4596C95.6667 27.9901 95.8261 28.0379 95.9535 28.1495C96.081 28.2611 96.1606 28.4046 96.1606 28.6118V30.413L96.1447 30.4289Z" fill="#737277"/>
<path d="M96.2084 25.3442H48.0007C45.9137 25.3442 44.209 27.0498 44.209 29.138V30.2059C44.209 32.2941 45.9137 33.9997 48.0007 33.9997H96.2084C98.2954 33.9997 100 32.2941 100 30.2059V29.138C100 27.0498 98.2954 25.3442 96.2084 25.3442ZM99.7292 30.2059C99.7292 32.1347 98.152 33.7287 96.2084 33.7287H48.0007C46.073 33.7287 44.4799 32.1506 44.4799 30.2059V29.138C44.4799 27.1933 46.0571 25.6152 48.0007 25.6152H96.2084C98.152 25.6152 99.7292 27.1933 99.7292 29.138V30.2059Z" fill="#004C9C"/>
<path d="M2.46936 29.5364C2.40564 28.9147 1.87991 28.4365 1.24266 28.4365C0.557622 28.4365 3.05176e-05 28.9944 3.05176e-05 29.6798C3.05176e-05 30.3653 0.557622 30.9232 1.24266 30.9232C1.87991 30.9232 2.40564 30.445 2.46936 29.8233H44.3524V29.5523H2.46936V29.5364Z" fill="#004C9C"/>
</g>
<defs>
<clipPath id="clip0_2136_8182">
<rect width="100" height="34" fill="white"/>
</clipPath>
</defs>
</svg>
