<svg width="32" height="32" viewBox="0 0 32 32" fill="none" xmlns="http://www.w3.org/2000/svg">
<path d="M31 30.9042H29.8462C28.6221 30.9042 27.4481 30.418 26.5826 29.5524C25.717 28.6869 25.2308 27.5129 25.2308 26.2888C25.2308 27.5129 24.7445 28.6869 23.879 29.5524C23.0134 30.418 21.8395 30.9042 20.6154 30.9042C19.3913 30.9042 18.2174 30.418 17.3518 29.5524C16.4863 28.6869 16 27.5129 16 26.2888C16 27.5129 15.5137 28.6869 14.6482 29.5524C13.7826 30.418 12.6087 30.9042 11.3846 30.9042C10.1605 30.9042 8.9866 30.418 8.12105 29.5524C7.25549 28.6869 6.76923 27.5129 6.76923 26.2888C6.76923 27.5129 6.28297 28.6869 5.41742 29.5524C4.55186 30.418 3.37792 30.9042 2.15385 30.9042H1M22.9231 21.6735C21.7346 20.2285 20.2407 19.0647 18.549 18.2657C16.8572 17.4666 15.0094 17.0522 13.1385 17.0522C11.2675 17.0522 9.41974 17.4666 7.72796 18.2657C6.03618 19.0647 4.54237 20.2285 3.35385 21.6735" stroke="#6BB256" stroke-width="2" stroke-linecap="round" stroke-linejoin="round"/>
<path d="M14.8464 17.1737C14.9848 11.9583 16.5771 7.2045 20.0387 5.49681M13.1387 1.11219C14.6346 0.817632 16.1865 1.10818 17.4746 1.92394C18.7626 2.73971 19.6886 4.01852 20.0617 5.49681" stroke="#6BB256" stroke-width="2" stroke-linecap="round" stroke-linejoin="round"/>
<path d="M28.4847 6.35093C27.4226 5.20407 25.9783 4.48445 24.4231 4.32722C22.8679 4.17 21.3087 4.586 20.0386 5.49709" stroke="#6BB256" stroke-width="2" stroke-linecap="round" stroke-linejoin="round"/>
<path d="M11.5693 7.96639C12.4736 6.63417 13.814 5.65879 15.3597 5.20812C16.9055 4.75744 18.56 4.85965 20.0386 5.49716C21.5216 5.85987 22.8057 6.78479 23.6195 8.07659C24.4333 9.36838 24.7132 10.9259 24.4001 12.4202" stroke="#6BB256" stroke-width="2" stroke-linecap="round" stroke-linejoin="round"/>
</svg>
