<svg width="30" height="30" viewBox="0 0 30 30" fill="none" xmlns="http://www.w3.org/2000/svg">
<path d="M12.4737 2V13.8182L16.1053 11.4545L19.7368 13.8182V2M7.02632 22.0909C6.22369 22.0909 5.45393 22.4022 4.88639 22.9563C4.31884 23.5104 4 24.2619 4 25.0455M4 25.0455C4 25.829 4.31884 26.5805 4.88639 27.1346C5.45393 27.6887 6.22369 28 7.02632 28H27M4 25.0455V4.95455C4 4.17095 4.31884 3.41945 4.88639 2.86537C5.45393 2.31128 6.22369 2 7.02632 2H25.7895V22.0992H7.01663M25.1842 22.0909C24.3816 22.0909 23.6118 22.4022 23.0443 22.9563C22.4767 23.5104 22.1579 24.2619 22.1579 25.0455C22.1579 25.829 22.4767 26.5805 23.0443 27.1346C23.6118 27.6887 24.3816 28 25.1842 28" stroke="#6BB256" stroke-width="2"/>
</svg>
