<svg width="30" height="31" viewBox="0 0 30 31" fill="none" xmlns="http://www.w3.org/2000/svg">
<path d="M28.125 25.2793H26.25V12.1543C26.25 11.657 26.0525 11.1801 25.7008 10.8285C25.3492 10.4768 24.8723 10.2793 24.375 10.2793H16.875V4.65429C16.8752 4.31476 16.7832 3.98154 16.6089 3.69019C16.4345 3.39885 16.1843 3.16032 15.885 3.00006C15.5856 2.83981 15.2484 2.76384 14.9093 2.78027C14.5701 2.7967 14.2418 2.90492 13.9594 3.09336L4.58437 9.34179C4.32719 9.51338 4.11643 9.7459 3.97086 10.0186C3.82528 10.2914 3.74941 10.5959 3.75 10.9051V25.2793H1.875C1.62636 25.2793 1.3879 25.3781 1.21209 25.5539C1.03627 25.7297 0.9375 25.9682 0.9375 26.2168C0.9375 26.4654 1.03627 26.7039 1.21209 26.8797C1.3879 27.0555 1.62636 27.1543 1.875 27.1543H28.125C28.3736 27.1543 28.6121 27.0555 28.7879 26.8797C28.9637 26.7039 29.0625 26.4654 29.0625 26.2168C29.0625 25.9682 28.9637 25.7297 28.7879 25.5539C28.6121 25.3781 28.3736 25.2793 28.125 25.2793ZM24.375 12.1543V25.2793H16.875V12.1543H24.375ZM5.625 10.9051L15 4.65429V25.2793H5.625V10.9051ZM13.125 14.0293V15.9043C13.125 16.1529 13.0262 16.3914 12.8504 16.5672C12.6746 16.743 12.4361 16.8418 12.1875 16.8418C11.9389 16.8418 11.7004 16.743 11.5246 16.5672C11.3488 16.3914 11.25 16.1529 11.25 15.9043V14.0293C11.25 13.7807 11.3488 13.5422 11.5246 13.3664C11.7004 13.1906 11.9389 13.0918 12.1875 13.0918C12.4361 13.0918 12.6746 13.1906 12.8504 13.3664C13.0262 13.5422 13.125 13.7807 13.125 14.0293ZM9.375 14.0293V15.9043C9.375 16.1529 9.27623 16.3914 9.10041 16.5672C8.9246 16.743 8.68614 16.8418 8.4375 16.8418C8.18886 16.8418 7.9504 16.743 7.77459 16.5672C7.59877 16.3914 7.5 16.1529 7.5 15.9043V14.0293C7.5 13.7807 7.59877 13.5422 7.77459 13.3664C7.9504 13.1906 8.18886 13.0918 8.4375 13.0918C8.68614 13.0918 8.9246 13.1906 9.10041 13.3664C9.27623 13.5422 9.375 13.7807 9.375 14.0293ZM9.375 20.5918V22.4668C9.375 22.7154 9.27623 22.9539 9.10041 23.1297C8.9246 23.3055 8.68614 23.4043 8.4375 23.4043C8.18886 23.4043 7.9504 23.3055 7.77459 23.1297C7.59877 22.9539 7.5 22.7154 7.5 22.4668V20.5918C7.5 20.3432 7.59877 20.1047 7.77459 19.9289C7.9504 19.7531 8.18886 19.6543 8.4375 19.6543C8.68614 19.6543 8.9246 19.7531 9.10041 19.9289C9.27623 20.1047 9.375 20.3432 9.375 20.5918ZM13.125 20.5918V22.4668C13.125 22.7154 13.0262 22.9539 12.8504 23.1297C12.6746 23.3055 12.4361 23.4043 12.1875 23.4043C11.9389 23.4043 11.7004 23.3055 11.5246 23.1297C11.3488 22.9539 11.25 22.7154 11.25 22.4668V20.5918C11.25 20.3432 11.3488 20.1047 11.5246 19.9289C11.7004 19.7531 11.9389 19.6543 12.1875 19.6543C12.4361 19.6543 12.6746 19.7531 12.8504 19.9289C13.0262 20.1047 13.125 20.3432 13.125 20.5918Z" fill="#6BB256"/>
</svg>
