<svg width="170" height="56" viewBox="0 0 170 56" fill="none" xmlns="http://www.w3.org/2000/svg">
<path d="M49.1054 30.9169L51.313 12.3892C51.9205 7.28272 54.4416 0.312012 65.1663 0.312012C77.0731 0.312012 75.9431 7.45158 75.1071 13.963C75.0483 14.4831 74.872 15.9353 74.774 16.2865H65.0552L65.7737 10.248C65.839 9.72786 66.1852 7.28947 63.9971 7.28947C61.5805 7.28947 61.4107 9.20776 61.2082 10.8896L58.4976 33.5985C58.2952 35.2804 58.6283 36.7326 60.4244 36.7326C62.2206 36.7326 62.8345 34.8751 62.9782 33.6525L63.8534 26.3373H73.6767L72.8603 33.1932C72.3051 37.8403 69.0002 43.8789 59.3467 43.8789C48.6743 43.8789 48.3935 36.7934 49.0989 30.9304" fill="#6B4133"/>
<path d="M75.0157 42.9941L79.9926 1.24415H90.3842C98.0194 1.24415 103.983 1.18336 102.742 11.5786C101.827 19.245 97.8169 19.9408 95.0345 20.6432C100.227 21.8591 101.416 23.1965 100.534 30.5724C99.7176 37.4283 98.1566 43.0008 88.157 43.0008H75.0157V42.9941ZM87.0074 23.8854L85.5117 36.4286C90.1752 36.4286 90.4299 34.7468 91.0047 29.924C91.5076 25.7429 90.9459 23.8246 89.1497 23.8246C88.2484 23.8246 87.7389 23.8787 87.0074 23.8787M87.6867 18.1981H88.6468C91.7362 18.1981 92.4154 17.6712 92.9902 12.3892C93.4343 8.67416 92.8922 7.56641 91.3181 7.56641C89.5677 7.62045 90.1947 7.56641 88.9538 7.62045L87.6932 18.1913L87.6867 18.1981Z" fill="#6B4133"/>
<path d="M102.526 42.9941L107.503 1.24414H117.274C129.011 1.24414 131.434 3.04085 130.148 13.8481C128.939 23.953 127.013 26.9722 114.204 26.9722L112.291 43.0008H102.52L102.526 42.9941ZM116.51 7.68123L114.988 20.4541C118.358 20.4541 119.541 20.4001 120.272 14.3007C121.062 7.68123 120.612 7.68123 116.51 7.68123Z" fill="#6B4133"/>
<path d="M129.37 42.9945L134.347 1.23779H148.22L148.024 32.0791L156.195 1.23779H169.95L164.973 42.9945H156.045L160.088 9.07983L150.598 42.9945H142.231L141.166 9.07983L137.123 42.9945H129.37Z" fill="#6B4133"/>
<path d="M0.661697 42.9941H43.1945L43.3708 41.4541H0.844597L0.661697 42.9941Z" fill="#6B4133"/>
<path d="M0.949081 40.5623L43.4492 40.5758L43.6256 38.9683H1.13848L0.949081 40.5623Z" fill="#6B4133"/>
<path d="M1.56958 35.2874H10.7397L22.542 33.977L20.5957 35.2874H29.6417L40.0202 33.977L37.8714 35.2874H44.0566L44.2591 33.7271H1.75244L1.56958 35.2874Z" fill="#6B4133"/>
<path d="M32.607 9.84277H4.57403L4.38463 11.4436L16.2523 11.4504L32.607 9.84277Z" fill="#6B4133"/>
<path d="M1.25607 37.962L12.7906 37.9485L18.9171 36.6651L17.2712 37.9755H30.739L36.3887 36.6651L34.6579 37.9755H43.7105L43.8868 36.3477H1.44547L1.25607 37.962Z" fill="#6B4133"/>
<path d="M20.1907 20.9136L22.5943 22.0618L28.2048 20.5083H3.31346L3.1371 22.0416H9.76653L20.1907 20.9136Z" fill="#6B4133"/>
<path d="M24.4754 28.3906H2.386L2.19006 30.0387L8.83907 30.0455L24.4754 28.3906Z" fill="#6B4133"/>
<path d="M41.6139 31.167H2.05943L1.87 32.7476H9.11339L24.5276 31.2075V32.7476L41.6139 31.167Z" fill="#6B4133"/>
<path d="M2.69296 25.804L2.49702 27.4454H9.08073L24.5276 25.8243V27.3778L41.3918 25.7905H24.5276L2.69296 25.804Z" fill="#6B4133"/>
<path d="M41.7184 32.7746H44.4028L44.6053 31.167H41.7184V32.7746Z" fill="#6B4133"/>
<path d="M24.5276 29.9712L41.5028 28.3906H24.5276V29.9712Z" fill="#6B4133"/>
<path d="M41.7445 27.4251H45.0494L45.2257 25.7905H41.7184L41.7445 27.4251Z" fill="#6B4133"/>
<path d="M33.9394 7.1543H32.7964L4.89405 7.16781L4.71773 8.65381L17.2385 8.64705L32.7964 7.25561V8.69434H47.1656L47.3484 7.18131L33.9198 7.1543H33.9394Z" fill="#6B4133"/>
<path d="M32.8552 11.4569H46.9174L47.0937 9.86963H32.8552V11.4569Z" fill="#6B4133"/>
<path d="M32.7964 12.5308L4.26052 12.5443L4.07762 14.064H17.4671L32.7964 12.6659V14.064H46.5255L46.7215 12.5308H32.7964Z" fill="#6B4133"/>
<path d="M5.5407 1.71729L5.33823 3.39241H21.9803L24.4035 1.91992L27.31 3.39241H47.871L48.0669 1.71729H5.5407Z" fill="#6B4133"/>
<path d="M41.7445 29.9982H44.7359L44.9122 28.3906H41.7184L41.7445 29.9982Z" fill="#6B4133"/>
<path d="M28.6228 4.49341L5.21413 4.48665L5.01166 6.16178L18.3292 6.16854L28.6555 4.51367L31.6208 6.16854H47.5248L47.7273 4.47314H28.5836L28.6228 4.49341Z" fill="#6B4133"/>
<path d="M3.95352 15.145L3.77066 16.6986L16.8139 16.6851L32.7964 15.1855V16.6851H46.212L46.4341 15.1045L32.7964 15.1315L3.95352 15.145Z" fill="#6B4133"/>
<path d="M3.013 23.1018L2.83014 24.6418H9.23749L24.5276 23.1491V24.5946L41.7183 23.1491L41.7445 24.6418H45.3564L45.5588 23.0815L41.7183 23.1018H3.013Z" fill="#6B4133"/>
<path d="M26.7875 21.9404L36.5846 20.6976L39.5369 21.9404H45.6176L45.794 20.4004H28.4922L26.7875 21.9404Z" fill="#6B4133"/>
<path d="M3.44409 19.434L12.4706 19.4272L15.3771 18.0966L18.1986 19.4272L32.8552 18.0966L35.004 19.4272H45.9638L46.1402 17.8467H3.63349L3.44409 19.434Z" fill="#6B4133"/>
<path d="M1.43892 53.261C1.00785 53.0448 0.681268 52.7409 0.452668 52.3424C0.224067 51.9506 0.106522 51.498 0.106522 50.9847C0.106522 50.3025 0.256713 49.6811 0.563691 49.1204C0.864137 48.5666 1.29523 48.1208 1.84387 47.8033C2.39251 47.4791 3.02607 47.3237 3.73147 47.3237C4.24092 47.3237 4.69159 47.4115 5.08348 47.5804C5.47537 47.756 5.76927 48.0059 5.97175 48.3369L5.18143 49.0259C4.84832 48.5463 4.34543 48.3099 3.65963 48.3099C3.1763 48.3099 2.74521 48.4247 2.37291 48.6544C2.00062 48.884 1.71324 49.2015 1.5173 49.6C1.31482 49.9985 1.21684 50.4308 1.21684 50.9104C1.21684 51.4238 1.37362 51.8358 1.69366 52.1397C2.0137 52.4437 2.47088 52.5923 3.05871 52.5923C3.73798 52.5923 4.29315 52.3559 4.73076 51.8831L5.37087 52.599C5.09001 52.93 4.74384 53.1732 4.33889 53.3353C3.9274 53.4974 3.47672 53.5785 2.98033 53.5785C2.3925 53.5785 1.88307 53.4704 1.452 53.2475" fill="#6B4133"/>
<path d="M6.55961 53.3081C6.23304 53.1325 5.97829 52.8961 5.79541 52.5921C5.61252 52.2882 5.52763 51.9302 5.52763 51.5249C5.52763 51.0116 5.64521 50.5455 5.86728 50.1335C6.09588 49.7214 6.40936 49.3972 6.81431 49.1608C7.21926 48.9244 7.67649 48.8096 8.19247 48.8096C8.63008 48.8096 9.01541 48.8974 9.34851 49.0595C9.68162 49.2283 9.93637 49.4648 10.1127 49.7755C10.2956 50.0794 10.387 50.4374 10.387 50.8427C10.387 51.356 10.2694 51.8221 10.0408 52.2341C9.81224 52.6462 9.49223 52.9704 9.08728 53.2068C8.6758 53.4432 8.2251 53.5648 7.70911 53.5648C7.27151 53.5648 6.89272 53.477 6.55961 53.3081ZM8.57127 52.4097C8.8064 52.2611 8.98931 52.0585 9.12647 51.7951C9.2571 51.5317 9.3224 51.2277 9.3224 50.8967C9.3224 50.532 9.21791 50.2483 9.00891 50.0389C8.7999 49.8363 8.5125 49.7282 8.13367 49.7282C7.83323 49.7282 7.57199 49.8025 7.33686 49.9511C7.10172 50.0997 6.91883 50.3023 6.7882 50.5658C6.65104 50.8359 6.58572 51.1331 6.58572 51.4709C6.58572 51.8356 6.69021 52.1193 6.89922 52.3287C7.10823 52.5381 7.39563 52.6394 7.77445 52.6394C8.06837 52.6394 8.33614 52.5651 8.57127 52.4165" fill="#6B4133"/>
<path d="M18.2117 49.2017C18.4991 49.4719 18.6428 49.8502 18.6428 50.35C18.6428 50.5391 18.6232 50.7283 18.584 50.9242L18.0876 53.4976H17.036L17.5324 50.9512C17.552 50.8363 17.5651 50.7148 17.5651 50.5864C17.5651 50.0258 17.2777 49.7489 16.7095 49.7489C15.9649 49.7489 15.5012 50.1947 15.3313 51.0795L14.8611 53.4976H13.8095L14.3059 50.9512C14.3255 50.8363 14.3385 50.7148 14.3385 50.5864C14.3385 50.0258 14.0577 49.7489 13.4829 49.7489C12.7383 49.7489 12.2746 50.1947 12.1048 51.093L11.6345 53.5044H10.583L11.4778 48.8573H12.4771L12.3856 49.3639C12.7645 48.9924 13.2543 48.8032 13.8552 48.8032C14.1818 48.8032 14.4626 48.864 14.7043 48.9991C14.946 49.1274 15.1289 49.3166 15.253 49.5665C15.7167 49.0531 16.3045 48.8032 17.0295 48.8032C17.5389 48.8032 17.9308 48.9383 18.2182 49.2017" fill="#6B4133"/>
<path d="M23.365 49.0464C23.6655 49.2085 23.9006 49.4449 24.0769 49.7489C24.2533 50.0596 24.3382 50.4176 24.3382 50.8363C24.3382 51.3497 24.2271 51.8158 24.0051 52.2278C23.783 52.6466 23.4826 52.9708 23.0972 53.2072C22.7118 53.4436 22.2873 53.5584 21.8171 53.5584C21.4644 53.5584 21.1574 53.4976 20.8961 53.3693C20.6283 53.241 20.4258 53.0586 20.2821 52.8154L19.8315 55.1863H18.7799L20.0013 48.8573H21.0006L20.9092 49.3436C21.3011 48.9856 21.7909 48.8032 22.3722 48.8032C22.7445 48.8032 23.0776 48.8843 23.3781 49.0464M22.5225 52.4102C22.7511 52.2616 22.9405 52.0589 23.0711 51.7955C23.2082 51.5321 23.2736 51.2281 23.2736 50.8971C23.2736 50.5324 23.1691 50.2487 22.9601 50.0393C22.7511 49.8367 22.4637 49.7286 22.0848 49.7286C21.7909 49.7286 21.5231 49.8029 21.288 49.9515C21.0529 50.1001 20.87 50.3027 20.7394 50.5662C20.6022 50.8363 20.5369 51.1335 20.5369 51.4713C20.5369 51.836 20.6414 52.1197 20.8504 52.3291C21.0594 52.5385 21.3468 52.6398 21.7256 52.6398C22.0261 52.6398 22.2873 52.5655 22.5225 52.4169" fill="#6B4133"/>
<path d="M29.8115 48.8569L28.9167 53.504H27.9174L28.0089 53.0244C27.617 53.3824 27.1271 53.5648 26.5458 53.5648C26.1735 53.5648 25.8404 53.4837 25.54 53.3216C25.2395 53.1595 25.0044 52.9231 24.828 52.6124C24.6517 52.3017 24.5668 51.9369 24.5668 51.5249C24.5668 51.0116 24.6778 50.5455 24.8999 50.1267C25.122 49.7147 25.4224 49.3905 25.8078 49.154C26.1931 48.9244 26.6242 48.8096 27.101 48.8096C27.8194 48.8096 28.3289 49.0527 28.6294 49.5458L28.7535 48.8569H29.805H29.8115ZM27.6104 52.4097C27.8456 52.2611 28.0284 52.0585 28.1591 51.7951C28.2962 51.5317 28.3616 51.2277 28.3616 50.8967C28.3616 50.532 28.2571 50.2483 28.048 50.0389C27.839 49.8363 27.5517 49.7282 27.1729 49.7282C26.8789 49.7282 26.6111 49.8025 26.376 49.9511C26.1409 50.0997 25.958 50.3023 25.8274 50.5658C25.6902 50.8359 25.6249 51.1331 25.6249 51.4709C25.6249 51.8356 25.7294 52.1193 25.9384 52.3287C26.1474 52.5381 26.4348 52.6394 26.8136 52.6394C27.1075 52.6394 27.3753 52.5651 27.6104 52.4165" fill="#6B4133"/>
<path d="M34.5011 49.2148C34.795 49.485 34.9387 49.87 34.9387 50.3699C34.9387 50.5117 34.9191 50.6941 34.88 50.9305L34.3836 53.504H33.332L33.8219 50.9575C33.8415 50.8427 33.8545 50.7211 33.8545 50.5995C33.8545 50.0389 33.5541 49.7552 32.9532 49.7552C32.5678 49.7552 32.2478 49.8633 31.9996 50.0929C31.7448 50.3158 31.575 50.6536 31.4836 51.0994L31.0134 53.5107H29.9618L30.8566 48.8636H31.8559L31.7579 49.377C32.1629 48.9987 32.6788 48.8096 33.3059 48.8096C33.8088 48.8096 34.2072 48.9447 34.5077 49.2148" fill="#6B4133"/>
<path d="M39.9222 49.2152C40.2161 49.4854 40.3663 49.8771 40.3663 50.3837C40.3663 50.5256 40.3468 50.7079 40.3076 50.9308L39.8112 53.5043H38.7596L39.2429 50.9578C39.2625 50.843 39.2756 50.7214 39.2756 50.5999C39.2756 50.0392 38.9751 49.7555 38.3743 49.7555C37.9889 49.7555 37.6689 49.8636 37.4142 50.0933C37.166 50.3162 36.9896 50.6539 36.8981 51.0997L36.4279 53.5111H35.3763L36.6238 47.0537H37.6754L37.2378 49.3232C37.6231 48.9788 38.1195 48.8099 38.7204 48.8099C39.2234 48.8099 39.6218 48.945 39.9157 49.2152" fill="#6B4133"/>
<path d="M41.6988 48.857H42.7503L41.8555 53.5042H40.804L41.6923 48.857H41.6988ZM42.0123 47.9181C41.8947 47.7966 41.8359 47.6547 41.8359 47.4858C41.8359 47.29 41.9013 47.1211 42.0319 46.9928C42.1625 46.8577 42.3323 46.7969 42.5479 46.7969C42.7308 46.7969 42.8875 46.8509 43.0051 46.9657C43.1226 47.0806 43.1814 47.2157 43.1814 47.3778C43.1814 47.5939 43.1161 47.7628 42.9855 47.9046C42.8548 48.0397 42.6785 48.1005 42.4695 48.1005C42.2866 48.1005 42.1299 48.0397 42.0123 47.9249" fill="#6B4133"/>
<path d="M48.1845 48.8569L47.2962 53.504H46.2969L46.3883 53.0244C45.9965 53.3824 45.5066 53.5648 44.9253 53.5648C44.553 53.5648 44.2199 53.4837 43.9194 53.3216C43.619 53.1595 43.3839 52.9231 43.2075 52.6124C43.0312 52.3017 42.9463 51.9369 42.9463 51.5249C42.9463 51.0116 43.0573 50.5455 43.2794 50.1267C43.5014 49.7147 43.8019 49.3905 44.1872 49.154C44.5726 48.9244 45.0037 48.8096 45.4805 48.8096C46.1989 48.8096 46.7084 49.0527 47.0154 49.5458L47.1395 48.8569H48.191H48.1845ZM45.9834 52.4097C46.2185 52.2611 46.4014 52.0585 46.5386 51.7951C46.6692 51.5317 46.741 51.2277 46.741 50.8967C46.741 50.532 46.6365 50.2483 46.4275 50.0389C46.2251 49.8363 45.9311 49.7282 45.5523 49.7282C45.2584 49.7282 44.9906 49.8025 44.7555 49.9511C44.5203 50.0997 44.3375 50.3023 44.2068 50.5658C44.0697 50.8359 44.0043 51.1331 44.0043 51.4709C44.0043 51.8356 44.1089 52.1193 44.3179 52.3287C44.5269 52.5381 44.8143 52.6394 45.1931 52.6394C45.487 52.6394 45.7548 52.5651 45.9899 52.4165" fill="#6B4133"/>
<path d="M55.774 50.816C55.9112 51.0254 55.983 51.2821 55.983 51.5928C55.983 52.2209 55.7479 52.6938 55.2776 53.018C54.8074 53.3422 54.1738 53.5043 53.377 53.5043H50.4248L51.6004 47.4185H54.3175C54.925 47.4185 55.4017 47.5333 55.7348 47.7697C56.0679 48.0061 56.2378 48.3438 56.2378 48.7829C56.2378 49.1611 56.1398 49.4854 55.9504 49.7488C55.761 50.019 55.5062 50.2216 55.1862 50.3567C55.4409 50.458 55.6369 50.6066 55.774 50.8228M54.5135 52.356C54.7617 52.1804 54.8858 51.9237 54.8858 51.5928C54.8858 51.3293 54.8008 51.147 54.618 51.0321C54.4416 50.9173 54.1804 50.8633 53.8277 50.8633H52.0184L51.6853 52.6195H53.4488C53.9126 52.6195 54.2653 52.5317 54.5135 52.3628M52.5148 48.3033L52.1883 49.9852H53.7428C54.1542 49.9852 54.4873 49.8974 54.7225 49.7285C54.9641 49.5597 55.0882 49.3097 55.0882 48.9788C55.0882 48.533 54.7486 48.3101 54.0693 48.3101H52.5148V48.3033Z" fill="#6B4133"/>
<path d="M61.6654 48.8569L60.7706 53.504H59.7713L59.8627 53.0244C59.4709 53.3824 58.981 53.5648 58.3997 53.5648C58.0274 53.5648 57.6943 53.4837 57.3938 53.3216C57.0934 53.1595 56.8583 52.9231 56.6819 52.6124C56.5056 52.3017 56.4207 51.9369 56.4207 51.5249C56.4207 51.0116 56.5317 50.5455 56.7538 50.1267C56.9758 49.7147 57.2763 49.3905 57.6616 49.154C58.047 48.9244 58.4781 48.8096 58.9549 48.8096C59.6733 48.8096 60.1828 49.0527 60.4897 49.5458L60.6138 48.8569H61.6654ZM59.4643 52.4097C59.6995 52.2611 59.8823 52.0585 60.0195 51.7951C60.1501 51.5317 60.222 51.2277 60.222 50.8967C60.222 50.532 60.1175 50.2483 59.9085 50.0389C59.6995 49.8363 59.4121 49.7282 59.0332 49.7282C58.7393 49.7282 58.4715 49.8025 58.2364 49.9511C58.0013 50.0997 57.8184 50.3023 57.6878 50.5658C57.5506 50.8359 57.4853 51.1331 57.4853 51.4709C57.4853 51.8356 57.5898 52.1193 57.7988 52.3287C58.0078 52.5381 58.2952 52.6394 58.674 52.6394C58.9679 52.6394 59.2357 52.5651 59.4708 52.4165" fill="#6B4133"/>
<path d="M62.7104 48.857H63.762L62.8737 53.5042H61.8222L62.7104 48.857ZM63.0174 47.9181C62.8999 47.7966 62.8411 47.6547 62.8411 47.4858C62.8411 47.29 62.9064 47.1211 63.037 46.9928C63.1676 46.8577 63.344 46.7969 63.553 46.7969C63.7359 46.7969 63.8926 46.8509 64.0102 46.9657C64.1278 47.0806 64.1866 47.2157 64.1866 47.3778C64.1866 47.5939 64.1212 47.7628 63.9906 47.9046C63.86 48.0397 63.6901 48.1005 63.4746 48.1005C63.2917 48.1005 63.1415 48.0397 63.0174 47.9249" fill="#6B4133"/>
<path d="M69.1961 48.8569L68.3013 53.504H67.302L67.3935 53.0244C67.0016 53.3824 66.5117 53.5648 65.9304 53.5648C65.5581 53.5648 65.225 53.4837 64.9246 53.3216C64.6241 53.1595 64.389 52.9231 64.2192 52.6124C64.0428 52.3017 63.9579 51.9369 63.9579 51.5249C63.9579 51.0116 64.0689 50.5455 64.291 50.1267C64.5131 49.7147 64.8135 49.3905 65.1989 49.154C65.5843 48.9244 66.0153 48.8096 66.4921 48.8096C67.2106 48.8096 67.72 49.0527 68.0205 49.5458L68.1511 48.8569H69.2027H69.1961ZM66.995 52.4097C67.2302 52.2611 67.4131 52.0585 67.5502 51.7951C67.6809 51.5317 67.7527 51.2277 67.7527 50.8967C67.7527 50.532 67.6482 50.2483 67.4392 50.0389C67.2302 49.8363 66.9428 49.7282 66.564 49.7282C66.2701 49.7282 66.0023 49.8025 65.7671 49.9511C65.5385 50.0997 65.3557 50.3023 65.2185 50.5658C65.0814 50.8359 65.016 51.1331 65.016 51.4709C65.016 51.8356 65.1205 52.1193 65.323 52.3287C65.532 52.5381 65.8259 52.6394 66.1982 52.6394C66.4921 52.6394 66.7599 52.5651 66.9885 52.4165" fill="#6B4133"/>
<path d="M73.8792 49.2148C74.1731 49.485 74.3168 49.87 74.3168 50.3699C74.3168 50.5117 74.2972 50.6941 74.258 50.9305L73.7616 53.504H72.7101L73.1934 50.9575C73.213 50.8427 73.226 50.7211 73.226 50.5995C73.226 50.0389 72.9256 49.7552 72.3247 49.7552C71.9394 49.7552 71.6193 49.8633 71.3646 50.0929C71.1164 50.3158 70.9401 50.6536 70.8486 51.0994L70.3783 53.5107H69.3268L70.215 48.8636H71.2144L71.1164 49.377C71.5213 48.9987 72.0373 48.8096 72.6643 48.8096C73.1673 48.8096 73.5657 48.9447 73.8661 49.2148" fill="#6B4133"/>
<path d="M80.0906 48.8569L79.2023 53.504H78.2031L78.2945 53.0244C77.9026 53.3824 77.4127 53.5648 76.8314 53.5648C76.4591 53.5648 76.126 53.4837 75.8256 53.3216C75.5251 53.1595 75.29 52.9231 75.1137 52.6124C74.9373 52.3017 74.8524 51.9369 74.8524 51.5249C74.8524 51.0116 74.9634 50.5455 75.1855 50.1267C75.4076 49.7147 75.708 49.3905 76.0934 49.154C76.4787 48.9244 76.9098 48.8096 77.3866 48.8096C78.1051 48.8096 78.6145 49.0527 78.9215 49.5458L79.0456 48.8569H80.0971H80.0906ZM77.8895 52.4097C78.1246 52.2611 78.3076 52.0585 78.4447 51.7951C78.5753 51.5317 78.6472 51.2277 78.6472 50.8967C78.6472 50.532 78.5427 50.2483 78.3336 50.0389C78.1312 49.8363 77.8373 49.7282 77.4585 49.7282C77.1645 49.7282 76.8967 49.8025 76.6616 49.9511C76.4265 50.0997 76.2436 50.3023 76.113 50.5658C75.9758 50.8359 75.9105 51.1331 75.9105 51.4709C75.9105 51.8356 76.015 52.1193 76.224 52.3287C76.433 52.5381 76.7269 52.6394 77.0992 52.6394C77.3932 52.6394 77.6609 52.5651 77.8961 52.4165" fill="#6B4133"/>
<path d="M87.863 47.0469L86.622 53.5042H85.6227L85.7142 53.0247C85.3092 53.3826 84.8259 53.565 84.2642 53.565C83.8919 53.565 83.5588 53.484 83.2584 53.3219C82.9579 53.1597 82.7228 52.9233 82.5464 52.6126C82.3701 52.3019 82.2852 51.9372 82.2852 51.5251C82.2852 51.005 82.3962 50.5322 82.6118 50.127C82.8273 49.7149 83.1342 49.3907 83.5131 49.161C83.8984 48.9314 84.3295 48.8166 84.8063 48.8166C85.159 48.8166 85.466 48.8774 85.7272 48.9989C85.9885 49.1205 86.191 49.3029 86.3347 49.5393L86.8115 47.0604H87.863V47.0469ZM85.3157 52.41C85.5509 52.2614 85.7338 52.0588 85.8644 51.7953C85.995 51.5319 86.0603 51.2279 86.0603 50.897C86.0603 50.5322 85.9559 50.2485 85.7468 50.0391C85.5378 49.8365 85.2504 49.7284 84.8716 49.7284C84.5777 49.7284 84.3165 49.8027 84.0813 49.9513C83.8462 50.0999 83.6633 50.3026 83.5327 50.566C83.402 50.8362 83.3367 51.1334 83.3367 51.4711C83.3367 51.8359 83.4412 52.1195 83.6502 52.3289C83.8592 52.5383 84.1466 52.6396 84.5255 52.6396C84.8194 52.6396 85.0806 52.5653 85.3157 52.4167" fill="#6B4133"/>
<path d="M92.3044 51.5046H88.7382C88.7513 52.2611 89.1889 52.6462 90.0315 52.6462C90.2862 52.6462 90.5279 52.6056 90.7565 52.5178C90.9785 52.43 91.168 52.3152 91.3247 52.1666L91.7623 52.9231C91.5272 53.1392 91.2529 53.3013 90.9328 53.4027C90.6128 53.5107 90.2732 53.5648 89.9205 53.5648C89.4698 53.5648 89.0779 53.4837 88.7448 53.3149C88.4117 53.146 88.157 52.9096 87.9741 52.5989C87.7912 52.2882 87.7063 51.9302 87.7063 51.5249C87.7063 51.0048 87.8173 50.5455 88.0394 50.1267C88.2615 49.7147 88.5684 49.3905 88.9669 49.154C89.3587 48.9244 89.8029 48.8096 90.2993 48.8096C90.9263 48.8096 91.4292 48.9919 91.8015 49.3567C92.1738 49.7147 92.3632 50.2145 92.3632 50.8494C92.3632 51.0723 92.3436 51.2952 92.2979 51.5114M89.3457 49.9713C89.0975 50.1672 88.9211 50.4374 88.8297 50.7819H91.4031C91.4031 50.4374 91.3051 50.1605 91.0961 49.9713C90.8871 49.7755 90.6062 49.6809 90.2535 49.6809C89.9008 49.6809 89.6004 49.7822 89.3522 49.9781" fill="#6B4133"/>
<path d="M99.7241 47.898C100.116 48.2222 100.312 48.668 100.312 49.2489C100.312 49.769 100.201 50.2081 99.9723 50.5863C99.7437 50.9578 99.4172 51.2483 98.9991 51.4509C98.5746 51.6468 98.0782 51.7481 97.5035 51.7481H96.0665L95.7203 53.5043H94.6296L95.8053 47.4185H98.0782C98.7902 47.4185 99.3388 47.5806 99.7307 47.898M98.7771 50.4175C99.0645 50.1743 99.2082 49.8163 99.2082 49.3503C99.2082 49.026 99.0971 48.7829 98.8816 48.614C98.666 48.4452 98.3591 48.3641 97.9541 48.3641H96.7066L96.2429 50.7822H97.5426C98.0717 50.7822 98.4832 50.6539 98.7706 50.4107" fill="#6B4133"/>
<path d="M104.825 51.5046H101.259C101.279 52.2611 101.71 52.6462 102.552 52.6462C102.807 52.6462 103.055 52.6056 103.277 52.5178C103.499 52.43 103.695 52.3152 103.852 52.1666L104.29 52.9231C104.061 53.1392 103.78 53.3013 103.46 53.4027C103.14 53.5107 102.8 53.5648 102.448 53.5648C101.997 53.5648 101.605 53.4837 101.272 53.3149C100.939 53.146 100.684 52.9096 100.501 52.5989C100.318 52.2882 100.234 51.9302 100.234 51.5249C100.234 51.0048 100.345 50.5455 100.567 50.1267C100.789 49.7147 101.096 49.3905 101.494 49.154C101.893 48.9244 102.337 48.8096 102.827 48.8096C103.454 48.8096 103.957 48.9919 104.329 49.3567C104.701 49.7147 104.891 50.2145 104.891 50.8494C104.891 51.0723 104.871 51.2952 104.825 51.5114M101.866 49.9713C101.618 50.1672 101.442 50.4374 101.35 50.7819H103.924C103.924 50.4374 103.826 50.1605 103.617 49.9713C103.408 49.7755 103.127 49.6809 102.774 49.6809C102.422 49.6809 102.121 49.7822 101.873 49.9781" fill="#6B4133"/>
<path d="M105.504 53.423C105.165 53.3285 104.89 53.2069 104.701 53.0583L105.139 52.2275C105.322 52.3626 105.557 52.4706 105.838 52.5584C106.118 52.6395 106.406 52.68 106.706 52.68C107.039 52.68 107.294 52.6327 107.464 52.5382C107.634 52.4436 107.725 52.3018 107.725 52.1261C107.725 51.9843 107.653 51.8897 107.51 51.8222C107.366 51.7614 107.144 51.6939 106.837 51.6263C106.517 51.5588 106.249 51.4912 106.047 51.4237C105.838 51.3494 105.668 51.2345 105.518 51.0657C105.367 50.9036 105.295 50.6739 105.295 50.3835C105.295 49.9039 105.491 49.5189 105.883 49.2419C106.275 48.9583 106.791 48.8164 107.438 48.8164C107.745 48.8164 108.045 48.8502 108.339 48.9245C108.626 48.9988 108.868 49.0933 109.051 49.2149L108.666 50.0457C108.476 49.9242 108.267 49.8363 108.039 49.7756C107.804 49.7148 107.575 49.6877 107.333 49.6877C107 49.6877 106.752 49.7418 106.582 49.8431C106.412 49.9444 106.327 50.0863 106.327 50.2551C106.327 50.4037 106.399 50.5118 106.549 50.5861C106.7 50.6536 106.928 50.7212 107.242 50.7887C107.555 50.8495 107.817 50.9238 108.019 50.9914C108.222 51.0657 108.391 51.1805 108.542 51.3426C108.685 51.5047 108.764 51.7276 108.764 52.0046C108.764 52.5044 108.568 52.8894 108.176 53.1596C107.784 53.4298 107.261 53.5649 106.608 53.5649C106.229 53.5649 105.864 53.5176 105.518 53.423" fill="#6B4133"/>
<path d="M114.335 48.8573L113.114 55.1863H112.062L112.467 53.0789C112.082 53.3963 111.611 53.5584 111.069 53.5584C110.697 53.5584 110.364 53.4774 110.063 53.3153C109.763 53.1532 109.528 52.9167 109.352 52.606C109.175 52.2953 109.09 51.9306 109.09 51.5186C109.09 51.0052 109.201 50.5391 109.423 50.1204C109.645 49.7083 109.946 49.3841 110.331 49.1477C110.717 48.9181 111.148 48.8032 111.624 48.8032C111.99 48.8032 112.304 48.8708 112.572 49.0059C112.839 49.141 113.048 49.3368 113.185 49.6003L113.329 48.8505H114.328L114.335 48.8573ZM112.14 52.4102C112.376 52.2616 112.558 52.0589 112.696 51.7955C112.826 51.5321 112.892 51.2281 112.892 50.8971C112.892 50.5324 112.787 50.2487 112.578 50.0393C112.376 49.8367 112.082 49.7286 111.703 49.7286C111.409 49.7286 111.141 49.8029 110.906 49.9515C110.671 50.1001 110.488 50.3027 110.357 50.5662C110.22 50.8363 110.155 51.1335 110.155 51.4713C110.155 51.836 110.259 52.1197 110.468 52.3291C110.677 52.5385 110.965 52.6398 111.344 52.6398C111.638 52.6398 111.905 52.5655 112.14 52.4169" fill="#6B4133"/>
<path d="M119.736 48.8574L118.835 53.5046H117.836L117.934 52.9912C117.529 53.3762 117.026 53.5653 116.412 53.5653C115.916 53.5653 115.524 53.4303 115.23 53.1533C114.936 52.8764 114.792 52.4914 114.792 51.9915C114.792 51.8024 114.812 51.62 114.851 51.4309L115.347 48.8574H116.399L115.903 51.4039C115.883 51.5187 115.87 51.6403 115.87 51.7619C115.87 52.0388 115.948 52.2415 116.092 52.3901C116.242 52.5387 116.464 52.6062 116.758 52.6062C117.144 52.6062 117.457 52.4981 117.712 52.2752C117.966 52.0523 118.13 51.7146 118.215 51.2688L118.685 48.8574H119.736Z" fill="#6B4133"/>
<path d="M120.768 48.857H121.82L120.925 53.5042H119.874L120.762 48.857H120.768ZM121.082 47.9181C120.964 47.7966 120.906 47.6547 120.906 47.4858C120.906 47.29 120.971 47.1211 121.102 46.9928C121.232 46.8577 121.409 46.7969 121.618 46.7969C121.807 46.7969 121.957 46.8509 122.075 46.9657C122.192 47.0806 122.251 47.2157 122.251 47.3778C122.251 47.5939 122.186 47.7628 122.055 47.9046C121.925 48.0397 121.755 48.1005 121.539 48.1005C121.356 48.1005 121.206 48.0397 121.082 47.9249" fill="#6B4133"/>
<path d="M122.414 53.423C122.075 53.3285 121.807 53.2069 121.611 53.0583L122.049 52.2275C122.231 52.3626 122.467 52.4706 122.747 52.5584C123.028 52.6395 123.316 52.68 123.61 52.68C123.949 52.68 124.204 52.6327 124.374 52.5382C124.544 52.4436 124.629 52.3018 124.629 52.1261C124.629 51.9843 124.557 51.8897 124.413 51.8222C124.269 51.7614 124.047 51.6939 123.74 51.6263C123.42 51.5588 123.159 51.4912 122.95 51.4237C122.747 51.3494 122.571 51.2345 122.421 51.0657C122.271 50.9036 122.199 50.6739 122.199 50.3835C122.199 49.9039 122.395 49.5189 122.787 49.2419C123.172 48.9583 123.695 48.8164 124.335 48.8164C124.642 48.8164 124.942 48.8502 125.236 48.9245C125.53 48.9988 125.765 49.0933 125.948 49.2149L125.563 50.0457C125.38 49.9242 125.164 49.8363 124.936 49.7756C124.7 49.7148 124.465 49.6877 124.23 49.6877C123.897 49.6877 123.649 49.7418 123.479 49.8431C123.309 49.9444 123.224 50.0863 123.224 50.2551C123.224 50.4037 123.303 50.5118 123.446 50.5861C123.597 50.6536 123.825 50.7212 124.139 50.7887C124.452 50.8495 124.713 50.9238 124.916 50.9914C125.118 51.0657 125.295 51.1805 125.438 51.3426C125.582 51.5047 125.654 51.7276 125.654 52.0046C125.654 52.5044 125.458 52.8894 125.066 53.1596C124.674 53.4298 124.152 53.5649 123.499 53.5649C123.12 53.5649 122.754 53.5176 122.408 53.423" fill="#6B4133"/>
<path d="M131.251 48.8569L130.363 53.504H129.364L129.455 53.0244C129.063 53.3824 128.574 53.5648 127.992 53.5648C127.62 53.5648 127.287 53.4837 126.986 53.3216C126.686 53.1595 126.451 52.9231 126.274 52.6124C126.098 52.3017 126.013 51.9369 126.013 51.5249C126.013 51.0116 126.124 50.5455 126.346 50.1267C126.568 49.7147 126.869 49.3905 127.254 49.154C127.64 48.9244 128.071 48.8096 128.547 48.8096C129.266 48.8096 129.775 49.0527 130.082 49.5458L130.206 48.8569H131.258H131.251ZM129.05 52.4097C129.285 52.2611 129.468 52.0585 129.599 51.7951C129.736 51.5317 129.801 51.2277 129.801 50.8967C129.801 50.532 129.697 50.2483 129.488 50.0389C129.279 49.8363 128.985 49.7282 128.613 49.7282C128.319 49.7282 128.051 49.8025 127.816 49.9511C127.581 50.0997 127.398 50.3023 127.267 50.5658C127.13 50.8359 127.065 51.1331 127.065 51.4709C127.065 51.8356 127.169 52.1193 127.378 52.3287C127.587 52.5381 127.881 52.6394 128.253 52.6394C128.547 52.6394 128.815 52.5651 129.05 52.4165" fill="#6B4133"/>
<path d="M141.107 47.4116L139.932 53.5042H138.893L139.657 49.5123L137.143 52.8085H136.659L135.314 49.4312L134.53 53.5042H133.485L134.667 47.4116H135.556L137.11 51.4644L140.167 47.4116H141.107Z" fill="#6B4133"/>
<path d="M141.976 48.857H143.028L142.139 53.5042H141.088L141.983 48.857H141.976ZM142.283 47.9181C142.165 47.7966 142.107 47.6547 142.107 47.4858C142.107 47.29 142.172 47.1211 142.303 46.9928C142.433 46.8577 142.61 46.7969 142.819 46.7969C143.008 46.7969 143.158 46.8509 143.276 46.9657C143.393 47.0806 143.452 47.2157 143.452 47.3778C143.452 47.5939 143.387 47.7628 143.256 47.9046C143.126 48.0397 142.949 48.1005 142.74 48.1005C142.557 48.1005 142.407 48.0397 142.283 47.9249" fill="#6B4133"/>
<path d="M147.711 49.2148C148.005 49.485 148.148 49.87 148.148 50.3699C148.148 50.5117 148.129 50.6941 148.09 50.9305L147.593 53.504H146.542L147.025 50.9575C147.051 50.8427 147.064 50.7211 147.064 50.5995C147.064 50.0389 146.764 49.7552 146.163 49.7552C145.777 49.7552 145.457 49.8633 145.209 50.0929C144.954 50.3158 144.785 50.6536 144.693 51.0994L144.223 53.5107H143.171L144.066 48.8636H145.065L144.967 49.377C145.372 48.9987 145.888 48.8096 146.515 48.8096C147.018 48.8096 147.417 48.9447 147.711 49.2148Z" fill="#6B4133"/>
<path d="M153.275 51.5046H149.709C149.722 52.2611 150.16 52.6462 151.002 52.6462C151.257 52.6462 151.505 52.6056 151.727 52.5178C151.95 52.43 152.145 52.3152 152.302 52.1666L152.74 52.9231C152.511 53.1392 152.23 53.3013 151.91 53.4027C151.59 53.5107 151.251 53.5648 150.898 53.5648C150.447 53.5648 150.055 53.4837 149.722 53.3149C149.389 53.146 149.134 52.9096 148.952 52.5989C148.769 52.2882 148.684 51.9302 148.684 51.5249C148.684 51.0048 148.795 50.5455 149.017 50.1267C149.239 49.7147 149.546 49.3905 149.938 49.154C150.33 48.9244 150.78 48.8096 151.27 48.8096C151.897 48.8096 152.4 48.9919 152.773 49.3567C153.151 49.7147 153.334 50.2145 153.334 50.8494C153.334 51.0723 153.315 51.2952 153.269 51.5114M150.317 49.9713C150.069 50.1672 149.892 50.4374 149.801 50.7819H152.374C152.374 50.4374 152.276 50.1605 152.067 49.9713C151.858 49.7755 151.577 49.6809 151.225 49.6809C150.872 49.6809 150.571 49.7822 150.323 49.9781" fill="#6B4133"/>
<path d="M156.006 48.9518C156.286 48.8505 156.626 48.8032 157.018 48.8032L156.829 49.8367C156.731 49.8232 156.646 49.8164 156.567 49.8164C155.712 49.8164 155.189 50.2825 155.013 51.2146L154.569 53.5044H153.517L154.405 48.8573H155.405L155.287 49.4584C155.483 49.222 155.725 49.0531 156.012 48.9586" fill="#6B4133"/>
<path d="M161.903 48.8569L161.015 53.504H160.016L160.107 53.0244C159.715 53.3824 159.226 53.5648 158.644 53.5648C158.272 53.5648 157.939 53.4837 157.638 53.3216C157.338 53.1595 157.103 52.9231 156.927 52.6124C156.75 52.3017 156.665 51.9369 156.665 51.5249C156.665 51.0116 156.776 50.5455 156.998 50.1267C157.22 49.7147 157.521 49.3905 157.906 49.154C158.292 48.9244 158.716 48.8096 159.199 48.8096C159.918 48.8096 160.427 49.0527 160.728 49.5458L160.858 48.8569H161.91H161.903ZM159.702 52.4097C159.938 52.2611 160.12 52.0585 160.251 51.7951C160.388 51.5317 160.454 51.2277 160.454 50.8967C160.454 50.532 160.349 50.2483 160.14 50.0389C159.931 49.8363 159.644 49.7282 159.265 49.7282C158.971 49.7282 158.703 49.8025 158.468 49.9511C158.233 50.0997 158.05 50.3023 157.919 50.5658C157.782 50.8359 157.717 51.1331 157.717 51.4709C157.717 51.8356 157.821 52.1193 158.03 52.3287C158.239 52.5381 158.527 52.6394 158.906 52.6394C159.199 52.6394 159.467 52.5651 159.702 52.4165" fill="#6B4133"/>
<path d="M163.301 47.0469H164.346L163.105 53.5042H162.054L163.301 47.0469Z" fill="#6B4133"/>
</svg>
