<svg width="30" height="28" viewBox="0 0 30 28" fill="none" xmlns="http://www.w3.org/2000/svg">
<path d="M11.5799 0C5.26537 0 0 4.37643 0 9.91991C0 12.7558 1.54012 15.2276 3.72756 17.0319C3.58519 17.9903 3.19857 18.895 2.60547 19.6578C2.36333 19.9708 2.10995 20.2748 1.84583 20.5692C1.70923 20.7142 1.58777 20.873 1.48338 21.043C1.41738 21.1516 1.31432 21.273 1.26684 21.518C1.21936 21.7631 1.28421 22.1634 1.48338 22.4657L1.62813 22.7213L1.91763 22.8671C2.93087 23.3771 4.02517 23.2873 5.0303 23.013C6.03428 22.7376 7.00004 22.2661 7.92527 21.7724C8.8505 21.2788 9.72826 20.7641 10.4219 20.3872C10.5192 20.3346 10.5817 20.3218 10.6755 20.2775C12.5016 22.8076 15.8459 24.508 19.5769 24.508C19.6128 24.5127 19.6464 24.508 19.6858 24.508C21.1912 24.508 26.0547 29.5193 28.9497 27.5353C29.0655 27.0697 26.4044 25.9015 26.2713 22.4295C28.5375 20.8155 30 18.4149 30 15.7551C30 11.8199 26.9012 8.56847 22.7626 7.40375C21.4529 3.10902 16.8997 0 11.5799 0ZM11.5799 2.3341C16.8453 2.3341 20.8438 5.89359 20.8438 9.91991C20.8438 13.9462 16.8453 17.5057 11.5799 17.5057C10.6396 17.5057 10.1 17.8932 9.3357 18.3087C8.57143 18.7241 7.69483 19.2376 6.83908 19.6939C6.09797 20.0884 5.39159 20.3918 4.7408 20.6054C5.37422 19.6834 6.03543 18.4709 6.15123 16.7763L6.18829 16.1193L5.64519 15.719C3.58166 14.2613 2.31598 12.1641 2.31598 9.91991C2.31598 5.89359 6.31451 2.3341 11.5799 2.3341Z" fill="#6BB256"/>
</svg>
