<svg width="30" height="16" viewBox="0 0 30 16" fill="none" xmlns="http://www.w3.org/2000/svg">
<path d="M6.39221 8C6.39221 7.61362 6.22672 7.23865 5.92529 6.9592C5.62316 6.67915 5.20877 6.51823 4.77264 6.51823C4.3365 6.51825 3.92212 6.67912 3.62 6.9592C3.31856 7.23865 3.15308 7.61362 3.15308 8C3.15308 8.38638 3.31856 8.76135 3.62 9.0408C3.92212 9.32088 4.3365 9.48175 4.77264 9.48177C5.20877 9.48177 5.62316 9.32085 5.92529 9.0408C6.22672 8.76135 6.39221 8.38638 6.39221 8ZM17.8976 4.44444C17.8976 3.74373 17.5975 3.06769 17.0563 2.56597C16.5144 2.06362 15.7752 1.77778 15 1.77778C14.2248 1.77778 13.4856 2.06362 12.9437 2.56597C12.4025 3.06769 12.1024 3.74373 12.1024 4.44444C12.1024 5.14516 12.4025 5.8212 12.9437 6.32292C13.4856 6.82527 14.2248 7.11111 15 7.11111C15.7752 7.11111 16.5144 6.82527 17.0563 6.32292C17.5975 5.8212 17.8976 5.14516 17.8976 4.44444ZM26.8469 8C26.8469 7.61362 26.6814 7.23865 26.38 6.9592C26.0779 6.67912 25.6635 6.51825 25.2274 6.51823C24.7912 6.51823 24.3768 6.67915 24.0747 6.9592C23.7733 7.23865 23.6078 7.61362 23.6078 8C23.6078 8.38638 23.7733 8.76135 24.0747 9.0408C24.3392 9.28592 24.6896 9.43942 25.0653 9.47396L25.2274 9.48177L25.3894 9.47396C25.7651 9.43939 26.1156 9.28593 26.38 9.0408C26.6814 8.76135 26.8469 8.38638 26.8469 8ZM8.26721 8C8.26721 8.87088 7.8938 9.70203 7.23633 10.3116C6.57948 10.9206 5.69268 11.2595 4.77264 11.2595C3.99744 11.2596 3.25824 11.5454 2.71637 12.0477C2.17529 12.5494 1.875 13.2256 1.875 13.9262V15.1111C1.875 15.602 1.45527 16 0.9375 16C0.419733 16 0 15.602 0 15.1111V13.9262C0 12.7409 0.508024 11.6079 1.40533 10.776C1.64478 10.5541 1.90699 10.3587 2.18628 10.191C1.60561 9.59462 1.27808 8.81488 1.27808 8C1.27808 7.12916 1.65154 6.29796 2.30896 5.68837C2.96579 5.07944 3.85264 4.74047 4.77264 4.74045C5.69268 4.74045 6.57948 5.07942 7.23633 5.68837C7.89381 6.29797 8.26721 7.12912 8.26721 8ZM28.7219 8C28.7219 8.81508 28.3937 9.59457 27.8128 10.191C28.0923 10.3588 28.355 10.5539 28.5947 10.776C29.492 11.6079 30 12.7409 30 13.9262V15.1111C30 15.602 29.5803 16 29.0625 16C28.5447 16 28.125 15.602 28.125 15.1111V13.9262C28.125 13.2256 27.8247 12.5494 27.2836 12.0477C26.7418 11.5454 26.0026 11.2596 25.2274 11.2595C24.3073 11.2595 23.4205 10.9206 22.7637 10.3116C22.1062 9.70203 21.7328 8.87088 21.7328 8C21.7328 7.12912 22.1062 6.29797 22.7637 5.68837C23.4205 5.07942 24.3073 4.74045 25.2274 4.74045C26.1474 4.74047 27.0342 5.07944 27.691 5.68837C28.3485 6.29796 28.7219 7.12916 28.7219 8ZM19.7726 4.44444C19.7726 5.62962 19.2645 6.76189 18.3673 7.59375C18.2992 7.65687 18.2283 7.7172 18.1567 7.77604C18.8979 8.10488 19.5821 8.54972 20.1755 9.09983C21.5523 10.3762 22.3297 12.1123 22.3297 13.9262V15.1111C22.3297 15.602 21.9099 15.9999 21.3922 16C20.8744 16 20.4547 15.602 20.4547 15.1111V13.9262C20.4547 12.5969 19.885 11.3178 18.8644 10.3715C17.8431 9.42462 16.4533 8.88889 15 8.88889C13.5467 8.88889 12.1569 9.42462 11.1356 10.3715C10.115 11.3178 9.54529 12.5969 9.54529 13.9262V15.1111C9.54529 15.602 9.12556 16 8.60779 16C8.0901 15.9999 7.67029 15.602 7.67029 15.1111V13.9262C7.67029 12.1123 8.44772 10.3762 9.82452 9.09983C10.4177 8.5499 11.1015 8.10485 11.8423 7.77604C11.7709 7.71733 11.7006 7.65672 11.6327 7.59375C10.7355 6.76189 10.2274 5.62962 10.2274 4.44444C10.2274 3.25927 10.7355 2.127 11.6327 1.29514C12.5293 0.463925 13.7409 2.74279e-08 15 0C16.2591 0 17.4707 0.463925 18.3673 1.29514C19.2645 2.127 19.7726 3.25927 19.7726 4.44444Z" fill="#6BB256"/>
</svg>
