<svg width="30" height="30" viewBox="0 0 30 30" fill="none" xmlns="http://www.w3.org/2000/svg">
<path d="M6 19.5H1.5M1.5 28.5H19.5C20.898 28.5 21.597 28.5 22.1475 28.272C22.5117 28.1212 22.8427 27.9002 23.1214 27.6214C23.4002 27.3427 23.6212 27.0117 23.772 26.6475C24 26.097 24 25.398 24 24C24 22.602 24 21.903 23.772 21.3525C23.6212 20.9883 23.4002 20.6573 23.1214 20.3786C22.8427 20.0998 22.5117 19.8788 22.1475 19.728C21.597 19.5 20.898 19.5 19.5 19.5H16.5H24C25.398 19.5 26.097 19.5 26.6475 19.272C27.0117 19.1212 27.3427 18.9002 27.6214 18.6214C27.9002 18.3427 28.1212 18.0117 28.272 17.6475C28.5 17.097 28.5 16.398 28.5 15C28.5 13.602 28.5 12.903 28.272 12.3525C28.1212 11.9883 27.9002 11.6573 27.6214 11.3786C27.3427 11.0998 27.0117 10.8788 26.6475 10.728C26.097 10.5 25.398 10.5 24 10.5H1.5H18C19.398 10.5 20.097 10.5 20.6475 10.272C21.0117 10.1212 21.3427 9.90016 21.6214 9.62141C21.9002 9.34267 22.1212 9.01173 22.272 8.6475C22.5 8.097 22.5 7.398 22.5 6C22.5 4.602 22.5 3.903 22.272 3.3525C22.1212 2.98827 21.9002 2.65733 21.6214 2.37859C21.3427 2.09984 21.0117 1.87877 20.6475 1.728C20.097 1.5 19.398 1.5 18 1.5H1.5" stroke="#F08A3C" stroke-width="2" stroke-linecap="round" stroke-linejoin="round"/>
<path d="M16.5 10.5V19.785C16.5 21.4575 16.5 22.293 16.011 22.47C15.5205 22.65 14.967 22.014 13.8615 20.745L13.1385 19.917C12.609 19.3095 12.345 19.0065 12 19.0065C11.655 19.0065 11.391 19.3095 10.86 19.917L10.14 20.745C9.033 22.014 8.4795 22.65 7.9905 22.47C7.5 22.293 7.5 21.4575 7.5 19.785V10.5" stroke="#F08A3C" stroke-width="2" stroke-linecap="round" stroke-linejoin="round"/>
</svg>
