<svg width="30" height="30" viewBox="0 0 30 30" fill="none" xmlns="http://www.w3.org/2000/svg">
<path d="M15 28C22.1797 28 28 22.1797 28 15C28 7.8203 22.1797 2 15 2C7.8203 2 2 7.8203 2 15C2 22.1797 7.8203 28 15 28Z" stroke="#6BB256" stroke-width="1.5"/>
<path d="M10.16 14.464L15.1594 7.27775C15.5507 6.71511 16.2833 7.06443 16.2833 7.81372V13.3761C16.2833 13.8241 16.5708 14.188 16.9259 14.188H19.3562C19.9088 14.188 20.2038 15.012 19.8388 15.536L14.8394 22.7223C14.4481 23.2849 13.7155 22.9356 13.7155 22.1863V16.6239C13.7155 16.1759 13.4279 15.812 13.0729 15.812H10.6426C10.0913 15.812 9.79621 14.988 10.1613 14.464" stroke="#6BB256" stroke-width="1.5" stroke-linecap="round" stroke-linejoin="round"/>
</svg>
