<svg width="38" height="32" viewBox="0 0 38 32" fill="none" xmlns="http://www.w3.org/2000/svg">
<path fill-rule="evenodd" clip-rule="evenodd" d="M1.82596 7.86868C1.42949 8.06125 1.09428 8.36635 0.859479 8.74834C0.624682 9.13033 0.5 9.57343 0.5 10.0259C0.5 10.4783 0.624682 10.9214 0.859479 11.3034C1.09428 11.6854 1.42949 11.9905 1.82596 12.1831L5.1304 13.7938V23.148C5.1304 24.9186 5.6873 26.8945 7.31179 28.1115C9.35915 29.6387 13.0888 31.5 19.0044 31.5C24.92 31.5 28.6404 29.6268 30.697 28.1115C32.3215 26.8993 32.8784 24.9377 32.8784 23.148V13.7938L35.1892 12.6651V23.1409C35.1892 23.4573 35.3109 23.7608 35.5276 23.9845C35.7443 24.2083 36.0382 24.334 36.3446 24.334C36.651 24.334 36.9449 24.2083 37.1616 23.9845C37.3783 23.7608 37.5 23.4573 37.5 23.1409V10.0163C37.5001 9.56442 37.3759 9.12176 37.1419 8.73987C36.9079 8.35798 36.5737 8.05256 36.1782 7.85914L22.9605 1.41618C21.7251 0.812905 20.3756 0.5 19.009 0.5C17.6425 0.5 16.2929 0.812905 15.0576 1.41618L1.83983 7.85914L1.82596 7.86868ZM7.44119 23.1409V14.9082L15.0437 18.6308C16.2791 19.2341 17.6286 19.547 18.9952 19.547C20.3617 19.547 21.7112 19.2341 22.9466 18.6308L30.5491 14.9082V23.1409C30.5491 24.4676 30.1332 25.551 29.3244 26.1476C27.6514 27.3956 24.4024 29.1066 18.9952 29.1066C13.5879 29.1066 10.3297 27.4075 8.66591 26.1476C7.85944 25.5462 7.44119 24.4557 7.44119 23.1409ZM16.0373 3.57338C16.9619 3.12113 17.9721 2.88653 18.9952 2.88653C20.0182 2.88653 21.0284 3.12113 21.953 3.57338L35.1707 10.0163L21.953 16.4593C21.0284 16.9115 20.0182 17.1461 18.9952 17.1461C17.9721 17.1461 16.9619 16.9115 16.0373 16.4593L2.8196 10.0163L16.0373 3.57338Z" fill="#F08A3C"/>
</svg>
