<svg width="109" height="34" viewBox="0 0 109 34" fill="none" xmlns="http://www.w3.org/2000/svg">
<g clip-path="url(#clip0_2136_8202)">
<path d="M91.8873 20.4307C91.5585 21.6758 90.9514 22.5906 89.383 22.5906C86.9293 22.5906 86.4108 20.1638 86.4108 18.7027C86.4108 16.7334 87.1823 14.764 89.4083 14.7767C90.6225 14.7767 91.4699 15.2849 91.6976 16.6952H92.0517V14.8275C91.5205 14.5734 90.6099 14.3574 89.5222 14.3574C88.055 14.3574 86.8787 14.7894 86.1578 15.5899C85.4748 16.3522 85.0701 17.394 85.0701 18.7408C85.0701 20.0876 85.4875 21.2692 86.2084 21.9934C86.8661 22.6541 87.8273 22.9464 88.9656 22.9845C89.2945 23.0353 89.2565 22.8828 89.6107 22.8701C90.2304 22.8447 89.1427 23.5435 88.5609 23.5435V23.8612C88.7253 23.8866 88.8771 23.8993 89.0921 23.8993C89.4589 23.8993 90.5466 23.7722 90.5466 22.8447C90.5466 22.8193 90.5466 22.8066 90.5466 22.7812C91.1664 22.7558 91.6723 22.6668 92.077 22.4381L92.2415 20.4434H91.8873V20.4307ZM64.6942 14.5353V14.8783C65.744 14.9546 65.7693 14.98 65.7693 15.6407V19.5286C65.7693 20.6721 65.5922 21.3836 65.2381 21.8664C64.8713 22.3492 64.3401 22.5906 63.6571 22.5906C62.9741 22.5906 62.4556 22.3492 62.0761 21.8664C61.722 21.3836 61.5449 20.6721 61.5449 19.5286V15.6407C61.5449 14.9673 61.5828 14.9419 62.62 14.8783V14.5353H59.2936V14.8783C60.3433 14.9546 60.3686 14.98 60.3686 15.6407V19.7827C60.3686 20.4942 60.4951 21.1295 60.6975 21.536C61.2414 22.705 62.4935 22.9972 63.6698 22.9972C64.846 22.9972 66.0982 22.7177 66.6547 21.536C66.857 21.1168 66.9835 20.4815 66.9835 19.7573V15.6407C66.9835 14.9673 67.0215 14.9419 68.0586 14.8783V14.5353H64.7322H64.6942ZM75.8877 20.4307C75.5588 21.6758 74.9391 22.5906 73.3834 22.5906C70.9297 22.5906 70.4111 20.1638 70.4111 18.7027C70.4111 16.7334 71.1826 14.764 73.4087 14.7767C74.6229 14.7767 75.4703 15.2849 75.6979 16.6952H76.0521V14.8275C75.5209 14.5734 74.6102 14.3574 73.5225 14.3574C72.0553 14.3574 70.8791 14.7894 70.1582 15.5899C69.4752 16.3522 69.0704 17.394 69.0704 18.7408C69.0704 20.0876 69.4878 21.2692 70.2087 21.9934C70.9423 22.7304 72.1186 23.0099 73.4593 23.0099C74.4079 23.0099 75.5082 22.7431 76.09 22.4381L76.2545 20.4434H75.9003L75.8877 20.4307ZM48.6693 20.761C48.391 22.2221 47.8598 22.4127 46.3547 22.4127C45.7982 22.4127 45.3682 22.3873 45.1152 22.2857C44.8623 22.184 44.8117 21.9807 44.8117 21.3836V18.7408H46.4812C47.493 18.7408 47.5436 19.0331 47.6448 19.7827H47.999V17.2543H47.6448C47.531 17.9912 47.493 18.2834 46.4812 18.2834H44.8117V15.3866C44.8117 15.0054 44.8749 14.9546 45.2543 14.9546H46.418C47.7839 14.9546 48.0495 15.2595 48.214 16.5047H48.5681V14.5353H42.5477V14.8783C43.5975 14.9546 43.6228 14.98 43.6228 15.6407V21.7012C43.6228 22.3746 43.5975 22.4 42.5477 22.4636V22.8066H48.8717L49.0108 20.7356H48.6566L48.6693 20.761Z" fill="#EE9137"/>
<path d="M57.1561 15.577C56.4984 14.9544 55.651 14.6495 54.5379 14.5606C54.3356 14.5479 54.1206 14.5352 53.8929 14.5352H49.9341V14.8782C50.9839 14.9544 51.0092 14.9799 51.0092 15.6405V21.7011C51.0092 22.3745 50.9839 22.3999 49.9341 22.4634V22.8065H53.6526C53.9435 22.8065 54.247 22.8065 54.5379 22.7683C55.2968 22.6921 56.043 22.4888 56.6754 22.0441C57.5608 21.4343 58.2311 20.3162 58.2311 18.5247C58.2311 17.3177 57.8896 16.2758 57.1561 15.5643V15.577ZM54.5379 22.3109C54.1964 22.3872 53.817 22.4126 53.4249 22.4126C52.3878 22.4126 52.1854 22.2855 52.1854 21.3326V15.6405C52.1854 15.018 52.2992 14.9544 53.564 14.9544C53.9182 14.9544 54.247 14.9926 54.5379 15.0561C56.3339 15.4373 56.8905 16.8349 56.8905 18.5755C56.8905 21.0023 55.9419 21.9933 54.5379 22.2982V22.3109Z" fill="#EE9137"/>
<path d="M107.963 15.5136C107.293 14.764 106.331 14.3574 105.003 14.3447C103.688 14.3447 102.714 14.7513 102.044 15.5136C101.399 16.2379 101.032 17.3178 101.032 18.6773C101.032 20.0368 101.399 21.1168 102.044 21.841C102.714 22.5906 103.688 23.0099 105.003 23.0099C106.331 23.0099 107.293 22.6033 107.963 21.841C108.621 21.1168 108.975 20.0241 108.975 18.6773C108.975 17.3305 108.621 16.2379 107.963 15.5136ZM105.003 22.5906C102.878 22.5906 102.385 20.4434 102.372 18.69C102.398 16.9239 102.891 14.7894 105.003 14.7894C107.128 14.7894 107.621 16.9367 107.634 18.69C107.609 20.4561 107.115 22.5906 105.003 22.5906Z" fill="#EE9137"/>
<path d="M98.654 12.8707C98.3125 13.5568 97.9963 14.0142 97.4145 14.0142C97.1489 14.0142 96.8074 13.8872 96.4659 13.7855C96.3773 13.7474 96.2762 13.722 96.1876 13.6966C95.9347 13.6203 95.707 13.5568 95.5173 13.5568C95.1252 13.5568 94.9228 13.7474 94.6572 14.1667L94.4296 14.0142C94.6699 13.5314 94.9987 12.8326 95.7703 12.8326C95.8967 12.8326 96.0485 12.858 96.1876 12.8961C96.3521 12.9342 96.5291 12.9978 96.7062 13.0613C97.035 13.1756 97.3639 13.29 97.6169 13.29C97.9457 13.29 98.0975 13.1629 98.4263 12.7437L98.6666 12.8707H98.654Z" fill="#EE9137"/>
<path d="M99.4761 21.7646L96.9465 14.5352H96.0611L94.809 18.08C94.4422 19.1219 93.9363 20.5576 93.5189 21.6503C93.266 22.2982 93.1648 22.438 92.4059 22.4761V22.8192H95.0367V22.4761L94.4169 22.4126C94.0628 22.3745 94.0248 22.2601 94.1134 21.9298C94.3157 21.2056 94.5687 20.4686 94.8469 19.6174H97.5157L98.3125 21.9044C98.4263 22.2474 98.3757 22.3872 97.9963 22.4253L97.4651 22.4761V22.8192H100.513V22.4761C99.8176 22.4126 99.6911 22.3745 99.4761 21.7519V21.7646ZM94.9987 19.1727C95.3782 17.9784 95.7955 16.7967 96.1623 15.7422H96.2003L97.3765 19.1727H94.9987Z" fill="#EE9137"/>
<path d="M83.5144 21.7646L80.9848 14.5352H80.0995L78.8473 18.08C78.4805 19.1219 77.9746 20.5576 77.5572 21.6503C77.3043 22.2982 77.2031 22.438 76.4442 22.4761V22.8192H79.075V22.4761L78.4552 22.4126C78.1011 22.3745 78.0631 22.2601 78.1517 21.9298C78.354 21.2056 78.607 20.4686 78.8852 19.6174H81.554L82.3508 21.9044C82.4646 22.2474 82.414 22.3872 82.0346 22.4253L81.5034 22.4761V22.8192H84.5515V22.4761C83.8559 22.4126 83.7294 22.3745 83.5144 21.7519V21.7646ZM79.037 19.1727C79.4165 17.9784 79.8338 16.7967 80.2006 15.7422H80.2386L81.4148 19.1727H79.037Z" fill="#EE9137"/>
<path d="M50.1617 12.1721L49.1373 12.2738V12.782H54.7024V12.2738C53.7917 12.2483 53.5767 12.0196 53.349 11.3081L49.8708 0.953125H47.6448L45.6085 6.69602C42.8259 7.53459 39.9549 9.58018 37.6909 11.8036C30.2033 17.8515 16.1641 23.48 11.8638 11.8036L11.6235 11.8926L11.4464 11.9561L11.2946 12.0069C10.8772 12.3627 10.4219 12.6676 9.92863 12.909V12.8328C9.47331 13.125 9.05592 13.125 8.86621 13.2394C8.55001 13.2394 8.01879 13.4173 7.81643 13.4173C7.68995 13.4173 7.62671 13.3918 7.56347 13.3664L6.90577 13.6078L6.74135 13.6714L6.69076 13.6968L6.51369 13.7603C9.8401 22.7939 15.9996 24.4711 22.4375 22.5906C21.3244 23.9628 20.3379 25.7289 19.5284 27.927L24.8912 29.909C26.9528 24.3313 31.1898 22.7812 35.8696 23.353C33.8965 24.1026 32.2017 25.856 31.0507 29.0069L34.5036 30.2775C36.717 24.2678 42.8639 25.5129 47.6954 28.2827C50.4274 30.1377 52.704 32.2087 54.0194 33.9494L54.4241 33.5682C51.6036 29.8455 47.4171 25.767 42.8512 22.7812C42.7501 22.7177 42.6489 22.6415 42.535 22.5779C38.6395 20.0877 34.4783 18.4105 30.6713 18.4741C32.5811 17.1654 34.4024 15.6788 36.0846 14.1161C37.5138 12.8455 38.9557 11.8036 40.309 10.9524C41.8521 9.97405 43.3445 9.31336 44.7611 9.02114C44.4575 9.87241 44.1793 10.622 43.9643 11.1811C43.6734 11.918 43.4963 12.1721 42.5224 12.2229V12.7312H46.6456V12.2229L45.5958 12.1467C45.2038 12.0959 45.1785 11.7655 45.2796 11.3844C45.4694 10.5458 45.735 9.71994 46.0132 8.83055C47.5942 8.76703 49.0487 9.19901 50.1364 10.3679L50.4526 11.3462C50.5538 11.702 50.5032 12.0578 50.1364 12.1086L50.1617 12.1721ZM46.8606 6.4165L47.8472 3.31635H47.8978L48.8464 6.34027C48.2013 6.26404 47.5436 6.30215 46.8733 6.4038L46.8606 6.4165Z" fill="#056DAC"/>
<path d="M62.6706 12.1975C62.3291 12.1212 62.2532 11.7401 62.2532 11.2318V1.81704H62.9362C64.5551 1.81704 64.7954 2.52855 65.3899 4.2565H66.0729V1.0293H55.6257V4.2565H56.2833C56.8905 2.52855 57.1181 1.81704 58.7371 1.81704H59.4453V11.2318C59.4453 11.8417 59.3189 12.1975 58.7371 12.2483L57.7379 12.3245V12.8581H63.9227V12.3245C63.5812 12.2991 63.265 12.2737 62.9362 12.2483C62.835 12.2483 62.7591 12.2229 62.6706 12.1975Z" fill="#056DAC"/>
<path d="M98.1354 2.52854C97.2627 1.63915 96.0232 1.18175 94.1766 1.08011C93.9616 1.08011 93.7466 1.0547 93.5062 1.0547H87.6755V1.68997C88.8771 1.7408 89.0036 1.84244 89.0036 2.70642V11.2064C89.0036 12.0704 88.8771 12.172 87.6882 12.2229C87.3846 12.1974 87.0684 12.045 86.8661 11.8417C86.4234 11.4097 86.1578 10.7744 86.006 9.88504C85.7657 8.51284 85.4369 7.39476 83.6282 6.96277V6.91195C85.3483 6.70866 86.5752 5.59057 86.5752 4.09132C86.5752 3.22734 86.3349 2.49042 85.7151 1.93138C85.0321 1.37234 84.0456 1.04199 82.3255 1.04199H76.2418V1.67727C77.4939 1.72809 77.6204 1.82974 77.6204 2.69371V11.1937C77.6204 12.0577 77.4939 12.1593 76.2418 12.2102C75.3438 12.1847 75.1161 12.0831 74.8758 11.3716L71.4229 1.04199H69.2095L67.1732 6.77219C66.5408 8.55096 65.9717 10.2789 65.5543 11.3208C65.2634 12.0323 65.061 12.1593 64.1124 12.2102V12.8454H68.2104V12.2102L67.1606 12.1085C66.7685 12.0831 66.7685 11.8798 66.8444 11.4986C67.0467 10.5838 67.3629 9.64364 67.6791 8.65261H71.0941L72.0047 11.4732C72.1059 11.829 72.0553 12.0577 71.6885 12.1085L70.6641 12.2102V12.8454H76.2039H81.7942V12.2102C80.5421 12.1593 80.4156 12.0577 80.4156 11.1937V7.40746H81.2251C81.5413 7.40746 81.8069 7.45829 82.0219 7.57264C82.414 7.77592 82.6543 8.15709 82.7934 8.75425C82.9199 9.3387 83.0843 10.2789 83.3373 11.1429C83.78 12.4134 84.5136 12.8454 86.3728 12.8454H87.6755H92.7474C93.1774 12.8454 93.658 12.8454 94.1386 12.7946C96.6429 12.5913 99.5899 11.5622 99.5899 6.83571C99.5899 4.92988 99.0966 3.48145 98.0974 2.52854H98.1354ZM69.4246 7.83945H67.9953L69.4119 3.41793H69.4625L70.8411 7.83945H69.4119H69.4246ZM82.0725 6.5689C81.8575 6.61972 81.6045 6.64513 81.3263 6.64513H80.4662V2.50313C80.4662 2.04573 80.618 1.84244 81.5919 1.84244C81.7563 1.84244 81.9207 1.84244 82.0725 1.88056C83.0084 2.04573 83.6788 2.71912 83.6788 4.20567C83.6788 5.39999 83.2741 6.31479 82.0725 6.5689ZM94.1892 11.9433C93.8351 12.0323 93.4809 12.0704 93.1268 12.0704C92.0264 12.0704 91.7482 11.8671 91.7482 11.3335V2.32525C91.7482 1.91867 92.115 1.84244 93.19 1.84244C93.5568 1.84244 93.8857 1.88056 94.1892 1.9695C95.8082 2.4269 96.6303 4.06591 96.6303 6.83571C96.6303 10.3679 95.4793 11.5749 94.1892 11.9306V11.9433Z" fill="#056DAC"/>
<path d="M108.355 9.27521C107.723 11.1048 107.419 12.045 105.345 12.045C103.726 12.045 103.182 11.8925 103.182 10.7999V7.06444H104.851C105.952 7.06444 106.179 7.36938 106.47 8.61452H107.128V4.6631H106.47C106.179 5.90824 105.952 6.18776 104.851 6.18776H103.182V2.42693C103.182 1.9187 103.308 1.79165 103.814 1.79165H105.117C106.926 1.79165 107.229 2.47775 107.786 4.18029H108.469V1.00391H99.0208V1.66459C100.248 1.71542 100.412 1.79165 100.412 2.68104V11.181C100.412 12.045 100.248 12.1212 99.0208 12.1721V12.8328H108.81L109.025 9.27521H108.368H108.355Z" fill="#056DAC"/>
<path d="M25.6247 15.9327C27.8255 15.9327 29.6215 14.1412 29.6215 11.9178C29.6215 9.69431 27.8381 7.90283 25.6247 7.90283C23.4113 7.90283 21.628 9.69431 21.628 11.9178C21.628 14.1412 23.4113 15.9327 25.6247 15.9327Z" fill="#056DAC"/>
<path d="M6.23543 3.64648L5.91923 3.69731L5.88129 3.83707L6.04571 3.73542L6.50104 3.82436L6.64016 4.00224L7.0196 3.98953L6.23543 3.64648Z" fill="#EE9137"/>
<path d="M7.32317 4.00244H7.0955L7.14609 4.1295H6.95638C6.95638 4.1295 6.99432 4.23114 7.04491 4.23114L7.63936 4.18032C7.56348 4.06597 7.50024 4.00244 7.32317 4.00244Z" fill="#EE9137"/>
<path d="M4.95799 6.28955V6.46743H5.04653C5.03388 6.25143 5.09712 6.3912 4.95799 6.28955Z" fill="#EE9137"/>
<path d="M8.14528 1.35949V1.48654H8.37294L8.63855 1.53736V1.44843H8.55001V1.35949H8.37294L8.32235 1.21973H8.23381V1.35949H8.14528Z" fill="#EE9137"/>
<path d="M13.7357 6.21318V6.09883L13.6851 5.73037L13.6345 5.50167L13.5839 5.27297L13.5333 5.09509L13.4827 4.95533L13.4321 4.81557L13.3815 4.67581L13.3309 4.53605L13.2803 4.39629L13.2298 4.30735L13.1792 4.16759L13.1286 4.07865L13.078 3.98971L13.0274 3.90077L12.9768 3.81183L12.9388 3.72289L12.8883 3.63396L12.8377 3.54502L12.7871 3.45608L12.7365 3.36714L12.6859 3.31632L12.6353 3.22738L12.5847 3.13844L12.4962 3.0495C12.4962 3.0495 12.4962 3.0368 12.4835 3.02409L12.4456 2.94786L12.395 2.89703L12.3444 2.8081L12.2938 2.75727L12.2432 2.66833L12.1926 2.61751L12.142 2.56669L12.0914 2.51587L12.0408 2.42693L11.9903 2.37611L11.9017 2.28717L11.8132 2.19823L11.7626 2.14741L11.712 2.09659L11.6614 2.00765L11.6108 1.95683L11.5602 1.906L11.5096 1.85518L11.4211 1.80436L11.3705 1.75354L11.3199 1.70271L11.2693 1.65189L11.2187 1.60107L11.0796 1.46131L10.9911 1.41049L10.9405 1.35967L10.8899 1.30884L10.8013 1.25802L10.7508 1.2072L10.7002 1.15638L10.6116 1.10555L10.561 1.05473L10.4725 1.00391L10.4219 0.953088L10.3334 0.902266L10.2828 0.851444L10.1942 0.800622L10.1057 0.7498L10.0551 0.698978L9.87805 0.610039L9.78951 0.559217L9.70097 0.508395L9.61244 0.457573L9.5239 0.406751L9.38478 0.355929L9.29624 0.305106L9.15711 0.254284L9.06858 0.203462L8.66384 0.0637013L8.48677 0.0128792L8.3097 -0.0379429L8.08204 -0.088765L7.85437 -0.139587L7.48758 -0.190409H7.31051C7.10815 -0.203115 6.89313 -0.21582 6.67812 -0.21582C6.4631 -0.21582 6.26073 -0.21582 6.04572 -0.190409H5.89394L5.66628 -0.152293H5.57774L5.35008 -0.088765L5.12242 -0.0379429L4.94535 0.0128792L4.76828 0.0637013L4.49002 0.15264L4.35089 0.203462L4.21177 0.254284L4.12323 0.305106L3.9841 0.355929L3.70585 0.495689L3.61731 0.546512C3.61731 0.546512 3.55407 0.571923 3.52878 0.597334L3.35171 0.686272H3.33906C3.27582 0.737094 3.19993 0.775211 3.13669 0.813328C3.07345 0.851444 3.02286 0.889561 2.95962 0.927677L2.90903 0.953088L2.88373 0.9785C2.78255 1.04203 2.69401 1.10555 2.59283 1.18179C1.08772 2.61751 0 4.61228 0 6.86116C0 8.11901 0.341495 9.30062 0.935948 10.3044L0.961244 10.3552C0.961244 10.3552 1.02448 10.4568 1.04978 10.5076L1.08772 10.5839L1.12567 10.622C1.12567 10.622 1.13832 10.6474 1.15096 10.6601L1.18891 10.7236L1.22685 10.7618C1.22685 10.7618 1.22685 10.7745 1.2395 10.7872L1.27744 10.8634L1.32803 10.9142H1.34068C1.34068 10.9142 1.36598 10.965 1.37863 10.9905L1.40392 11.054L1.45451 11.1048L1.47981 11.1302C1.47981 11.1302 1.49246 11.1429 1.50511 11.1556L1.54305 11.2319L1.59364 11.2827L1.64423 11.3335L1.69482 11.3843L1.74542 11.4352L1.79601 11.5241L1.8466 11.5749L1.89719 11.6257L1.94778 11.6766L1.99838 11.7274L2.04897 11.7782L2.1375 11.8671L2.18809 11.918L2.23869 11.9688L2.32722 12.0577L2.37781 12.1085L2.46635 12.1594L2.51694 12.2102L2.56753 12.261L2.65607 12.3499L2.7446 12.4008L2.7952 12.4516L2.88373 12.5405L2.97227 12.5914L3.02286 12.6422L3.11139 12.693L3.16199 12.7438L3.25052 12.7946L3.30111 12.8455L3.47819 12.9344L3.52878 12.9725L3.61731 13.0233L3.79438 13.1123L3.88292 13.1631L3.97146 13.2139L4.05999 13.2647L4.14853 13.3156L4.23706 13.3664L4.3256 13.4172L4.46473 13.468L4.73033 13.557L5.00859 13.6459L5.14771 13.6967L5.32479 13.7476L5.78011 13.8365L6.05837 13.8873H7.87967L8.15792 13.8365L8.61325 13.7476L8.79032 13.6967L8.92945 13.6459L9.2077 13.557L9.34683 13.5062L9.39742 13.4553H9.48596L9.5745 13.4045L9.71362 13.3537L9.80216 13.3029L9.89069 13.252L9.97923 13.2012L10.0678 13.1504L10.1563 13.0996L10.3334 13.0106L10.4219 12.9598L10.4725 12.9217L10.6496 12.8328L10.7002 12.7819L10.7887 12.7311L10.8393 12.6803L10.9278 12.6295L10.9784 12.5786L11.029 12.5278L11.1175 12.477L11.1681 12.4262L11.2187 12.3754L11.3073 12.3245L11.3579 12.2737L11.4084 12.2229L11.459 12.1721L11.5096 12.1212L11.5602 12.0704L11.6488 12.0196L11.7373 11.9307L11.7879 11.8798L11.8764 11.7909L11.927 11.7401L11.9776 11.6893L12.0661 11.6003L12.1167 11.5114L12.1673 11.4606L12.2179 11.4097L12.2685 11.3589L12.3191 11.3081L12.3697 11.2573L12.4203 11.1683L12.5088 11.0794L12.5594 11.0286L12.61 10.9396L12.6606 10.8888L12.7112 10.7999L12.7618 10.7491L12.8124 10.6601L12.863 10.6093L12.9136 10.5204L12.9641 10.4695L13.0147 10.3806L13.0653 10.2917L13.1159 10.2408L13.1665 10.1519L13.2171 10.063L13.2677 9.97401L13.3183 9.88508L13.3689 9.79614L13.4195 9.7072L13.4701 9.56744L13.5207 9.4785L13.5712 9.33874L13.6218 9.2498L13.6724 9.11004L13.723 8.97028L13.7736 8.7924L13.8242 8.65264L13.8748 8.47476L13.9254 8.24606L13.976 8.01736L14.0266 7.6489V7.49644C14.0519 7.28044 14.0519 7.06445 14.0519 6.84845C14.0519 6.63246 14.0519 6.41647 14.0266 6.20047L13.7357 6.21318ZM5.60304 1.52484L5.88129 1.37237L5.95718 1.33425L6.13425 1.46131V1.53754H6.1722C6.37456 1.53754 6.41251 1.53754 6.51369 1.6773L6.28603 1.76624L6.23544 1.63919H6.1722L5.96983 1.6773L5.91924 1.906H5.8307L5.88129 1.71542V1.53754H5.60304V1.52484ZM13.6977 6.78493C13.6977 7.78866 13.508 8.67805 13.1918 9.46579V9.4912C12.7744 10.4822 12.1294 11.3462 11.3199 12.0323C10.9025 12.3881 10.4472 12.693 9.95393 12.9344V12.8582C9.49861 13.1504 9.08123 13.1504 8.89151 13.2647C8.57531 13.2647 8.04409 13.4426 7.84173 13.4426C7.71525 13.4426 7.65201 13.4172 7.58877 13.3918C7.53818 13.3791 7.48758 13.3537 7.3864 13.3537L7.60142 12.909L7.76584 12.7692L7.7279 12.7057L7.19668 13.0106L6.74135 13.1758L5.42597 13.2775L5.35008 13.4553C4.9074 13.3537 4.47737 13.2012 4.07264 13.0233C3.6679 12.7946 3.12404 12.4897 2.94697 12.3754C2.93432 12.3754 2.92168 12.3499 2.89638 12.3372C2.39046 11.9434 1.94778 11.5241 1.5557 11.0159C0.847412 10.1646 0.139127 8.58911 0.139127 7.01363C0.139127 5.43814 0.55651 4.24382 1.17626 3.25279C1.58099 2.60481 2.89638 1.10555 3.64261 0.927677H3.74379L3.59202 1.05473L3.64261 1.14367L3.46554 1.48672L3.51613 1.51213C3.16199 1.74083 2.92168 2.17282 2.92168 2.65563L3.0608 2.69375V3.34173L3.19993 3.37984V3.51961C3.19993 3.67207 3.23787 3.55772 3.28847 3.74831H3.377V3.60854H3.30111L3.18728 2.88433L3.32641 2.92245V3.24008C3.41495 3.26549 3.6932 3.72289 3.6932 3.83724C3.6932 3.95159 3.6932 3.95159 3.64261 4.01512C3.76909 4.193 4.24971 4.47252 4.55326 4.47252C4.66709 4.47252 4.66709 4.47252 4.74298 4.4217L5.10977 4.6504L5.46391 4.73934L5.5145 4.82828L5.65363 5.08239L5.88129 5.19674L6.26073 5.40002L6.45045 5.19674L6.64017 5.51437C6.64017 5.51437 6.58958 5.5652 6.58958 5.65413C6.58958 5.78119 6.61488 5.78119 6.64017 5.88283C6.53899 5.94636 6.18485 6.30212 6.18485 6.42917C6.18485 6.54352 6.26073 6.56893 6.32397 6.65787C6.24809 6.70869 6.18485 6.7214 6.18485 6.83575V7.01363C6.4631 7.08986 6.50104 7.47103 6.67812 7.69972C7.00696 8.13171 6.67812 7.96654 7.27257 8.28418L7.3611 8.37312H7.50023C7.46229 8.43665 7.4117 8.90675 7.4117 9.00839C7.3864 9.38956 7.33581 9.31333 7.28522 9.56744C7.25992 9.7199 7.24727 10.1011 7.19668 10.2154C7.10815 10.4822 7.04491 10.3552 7.04491 10.7491L6.99431 10.838L7.04491 10.9269L6.94372 11.054H7.05755V11.3335H6.91843L7.00696 11.5114H6.91843L6.88048 11.6511C7.00696 11.702 6.96902 11.6511 7.01961 11.829V12.0069L7.15874 11.9688C7.23462 12.1594 7.29786 12.0577 7.42434 12.0577H7.56347L7.3864 11.918V11.829L7.33581 11.7401L7.66466 11.4733L7.56347 11.3335L7.91761 10.9905L7.80378 10.965V10.838C7.93026 10.8634 7.87967 10.8888 7.98085 10.8888C8.06939 10.8888 8.08204 10.7363 8.11998 10.6601H8.43618L8.6512 10.4695L8.56266 10.1646C8.61325 10.2408 8.6259 10.3044 8.73973 10.3044H8.82827C8.95475 10.3044 9.04328 10.1519 9.09387 10.0757C9.11917 10.0248 9.15711 9.97401 9.18241 9.9486C9.38478 9.7199 9.63773 9.78343 9.63773 9.30062C9.90334 9.12274 10.0551 9.0211 10.3207 9.07192C10.4219 8.91946 10.5484 8.7797 10.6369 8.61452C10.7255 8.43665 10.7761 8.1063 10.8266 8.03007V7.89031C10.9911 7.85219 11.282 7.45832 11.282 7.25503V7.11527C11.282 6.9628 11.2061 6.97551 11.0543 6.97551L10.8646 6.70869L10.4978 6.65787L10.3334 6.7214L10.384 6.53082L9.95393 6.37835L9.82745 6.34023L9.77686 6.20047V6.06071H9.68833V5.92095C9.68833 5.8066 9.49861 5.69225 9.41007 5.64143L8.99269 5.60331L8.63855 5.22215H8.53736V4.99345H8.46148L8.43618 5.09509L8.37294 5.00615H7.77849L7.47494 4.84098L7.32316 4.90451L7.25992 4.92992L7.32316 4.85369L7.34846 4.82828L7.32316 4.80286L6.93107 4.90451L6.70341 5.27297C6.61488 5.20944 6.51369 5.09509 6.38721 5.09509C6.29868 5.09509 6.36192 5.18403 6.21014 5.18403H6.15955C6.03307 5.18403 6.04572 5.13321 5.98248 5.04427V4.4344L5.38803 4.40899L5.47656 4.23112V4.14218L5.61569 3.82454H5.26155L5.10977 4.15488H4.62915L4.46473 3.78642L4.60385 3.37984V3.20197C4.60385 3.20197 4.9074 3.02409 4.97064 3.02409H5.42597V2.93515H5.70422H5.88129H6.02042C6.07101 3.01138 6.10896 3.01138 6.10896 3.11303L6.13425 3.22738L6.18485 3.2782L6.34927 3.43067C6.34927 3.43067 6.39986 3.30361 6.39986 3.29091C6.39986 3.11303 6.31132 3.06221 6.31132 2.88433C6.31132 2.71916 6.72871 2.47775 6.85519 2.42693L6.81724 2.19823C7.13344 2.16011 6.85519 1.93141 7.3611 1.91871L7.31051 1.72813L7.76584 1.60107L7.7279 1.75354L8.13263 1.51213L7.80378 1.56295L7.77849 1.33425H7.55082V1.28343L8.2844 1.2072L8.32235 1.13097L7.60142 0.711683C7.53818 0.7498 7.52553 0.762506 7.42434 0.762506H7.28522V0.63545L6.88048 0.584628L6.80459 0.724389L6.88048 0.902266L6.70341 0.991205L6.66547 1.2199L6.60223 1.24532L6.4378 0.965794L6.22279 0.902266L5.93189 0.813328L5.79276 0.775211C5.79276 0.775211 5.86865 0.686272 5.93189 0.63545C6.03307 0.559217 6.15955 0.495689 6.22279 0.482984C6.22279 0.482984 6.23544 0.482984 6.24809 0.482984L6.70341 0.533806L6.52634 0.432162C6.52634 0.432162 6.71606 0.305106 6.79195 0.305106H7.0702L7.0955 0.355929L6.84254 0.495689L7.33581 0.584628L7.47494 0.5211L7.28522 0.394045L7.61406 0.419456L6.93107 0.216168L6.82989 0.15264L6.93107 0.0764069C7.3611 0.114523 7.56347 0.178051 7.87967 0.305106C8.22116 0.432162 8.14528 0.584628 8.70179 0.711683L8.66384 0.495689L8.87886 0.343223L8.99269 0.368634C9.08123 0.394045 9.15711 0.419456 9.24565 0.457573V0.571923C9.37213 0.597334 9.33418 0.622745 9.42272 0.622745C9.59979 0.622745 9.44802 0.63545 9.5492 0.584628C9.5492 0.584628 9.5745 0.584628 9.58714 0.597334C9.58714 0.597334 9.59979 0.597334 9.61244 0.597334C10.131 0.86415 10.2069 0.902266 10.6749 1.27073C10.9658 1.49943 11.3326 1.55025 11.6488 2.02035H11.5096C11.6488 2.22364 11.8891 2.5921 12.142 2.65563L12.18 2.50316L12.2812 2.79539L12.142 2.75727C12.3065 3.10032 12.3191 3.58313 12.357 4.07865L12.5594 4.80286H12.5088L12.6732 5.18403L12.8503 5.48896L13.1792 6.09883L13.4448 6.14965L13.5839 5.97177C13.6345 6.18777 13.723 6.40376 13.723 6.65787V6.79763L13.6977 6.78493Z" fill="#EE9137"/>
</g>
<defs>
<clipPath id="clip0_2136_8202">
<rect width="109" height="34" fill="white"/>
</clipPath>
</defs>
</svg>
