<svg width="30" height="30" viewBox="0 0 30 30" fill="none" xmlns="http://www.w3.org/2000/svg">
<path d="M8.75021 23.75H6.01896C5.62467 23.7511 5.23678 23.6503 4.89293 23.4574C4.54907 23.2644 4.26093 22.9859 4.05646 22.6487C3.86071 22.3099 3.75723 21.9257 3.75635 21.5344C3.75548 21.1431 3.85723 20.7584 4.05146 20.4187L8.99521 11.875M13.7502 23.75H24.004C24.3964 23.747 24.7814 23.643 25.122 23.4482C25.4626 23.2534 25.7474 22.9742 25.949 22.6375C26.1431 22.3 26.2453 21.9175 26.2453 21.5281C26.2453 21.1388 26.1431 20.7562 25.949 20.4187L24.4165 17.7688" stroke="#6BB256" stroke-width="2" stroke-linecap="round" stroke-linejoin="round"/>
<path d="M17.5 20L13.75 23.75L17.5 27.5M10.3663 16.995L8.995 11.875L3.875 13.2475M11.68 7.26376L13.0463 4.89876C13.2424 4.55676 13.5237 4.27127 13.8627 4.06999C14.2018 3.86872 14.5871 3.75849 14.9813 3.75001C15.3725 3.74877 15.7572 3.85074 16.0965 4.04562C16.4358 4.2405 16.7177 4.52141 16.9137 4.86001L21.8425 13.4138" stroke="#6BB256" stroke-width="2" stroke-linecap="round" stroke-linejoin="round"/>
<path d="M16.7227 12.0412L21.8427 13.4137L23.2139 8.2937" stroke="#6BB256" stroke-width="2" stroke-linecap="round" stroke-linejoin="round"/>
</svg>
