<svg width="30" height="30" viewBox="0 0 30 30" fill="none" xmlns="http://www.w3.org/2000/svg">
<path d="M21.25 24.3787C21.25 22.8099 22.5662 21.2599 23.49 20.3649C23.7252 20.131 24.0433 19.9998 24.375 19.9998C24.7067 19.9998 25.0248 20.131 25.26 20.3649C26.1838 21.2599 27.5 22.8099 27.5 24.3787C27.5 25.9174 26.3162 27.4999 24.375 27.4999C22.4338 27.4999 21.25 25.9174 21.25 24.3787Z" stroke="#6BB256" stroke-width="1.5"/>
<path d="M27.5002 15C22.3752 15 17.9689 18.085 16.0402 22.5M27.4977 10C19.5702 10 12.8752 15.2713 10.7227 22.5" stroke="#6BB256" stroke-width="1.5" stroke-linecap="round"/>
<path d="M27.5 5C16.79 5 7.82875 12.48 5.555 22.5M2.5 12.5C3.5975 12.5 4.6625 12.6413 5.67625 12.9075M2.5 7.5C4.8325 7.5 7.05875 7.95625 9.09375 8.785M2.5 2.5C6.46875 2.5 10.1987 3.5275 13.4362 5.33125" stroke="#6BB256" stroke-width="1.5" stroke-linecap="round"/>
</svg>
