<svg width="30" height="30" viewBox="0 0 30 30" fill="none" xmlns="http://www.w3.org/2000/svg">
<path fill-rule="evenodd" clip-rule="evenodd" d="M14.9999 25.5C15.4198 25.5 15.8226 25.658 16.1195 25.9393C16.4165 26.2206 16.5833 26.6022 16.5833 27V28.5C16.5833 28.8978 16.4165 29.2794 16.1195 29.5607C15.8226 29.842 15.4198 30 14.9999 30C14.5799 30 14.1771 29.842 13.8802 29.5607C13.5832 29.2794 13.4164 28.8978 13.4164 28.5V27C13.4164 26.6022 13.5832 26.2206 13.8802 25.9393C14.1771 25.658 14.5799 25.5 14.9999 25.5ZM22.838 22.425C23.1106 22.1667 23.4734 22.0116 23.8582 21.9887C24.243 21.9657 24.6235 22.0766 24.9281 22.3005L25.077 22.425L26.1965 23.4855C26.4804 23.7554 26.6453 24.1177 26.6576 24.4986C26.6699 24.8795 26.5286 25.2506 26.2626 25.5364C25.9965 25.8223 25.6255 26.0015 25.2251 26.0376C24.8246 26.0737 24.4246 25.9641 24.1063 25.731L23.9575 25.6065L22.838 24.546C22.5411 24.2647 22.3743 23.8832 22.3743 23.4855C22.3743 23.0878 22.5411 22.7063 22.838 22.425ZM7.16177 22.425C7.45862 22.7063 7.62538 23.0878 7.62538 23.4855C7.62538 23.8832 7.45862 24.2647 7.16177 24.546L6.04227 25.6065C5.74363 25.8797 5.34364 26.0309 4.92847 26.0275C4.51329 26.0241 4.11614 25.8663 3.82256 25.5882C3.52897 25.3101 3.36244 24.9339 3.35883 24.5406C3.35522 24.1473 3.51483 23.7684 3.80327 23.4855L4.92277 22.425C5.21971 22.1438 5.62239 21.9858 6.04227 21.9858C6.46214 21.9858 6.86483 22.1438 7.16177 22.425ZM14.9999 0C15.3877 4.84658e-05 15.762 0.134934 16.0519 0.379073C16.3417 0.623212 16.5269 0.959623 16.5722 1.3245L16.5833 1.5V3.15L29.528 15.414C30.4924 16.326 29.8812 17.859 28.578 17.991L28.3975 18H22.7588C22.3984 19.6658 21.4514 21.1662 20.0729 22.2553C18.6945 23.3445 16.9664 23.9578 15.1718 23.9947C13.3772 24.0317 11.6226 23.4901 10.1955 22.4587C8.76839 21.4274 7.75343 19.9674 7.31695 18.318L7.24094 18H1.60227C0.238914 18 -0.472057 16.506 0.349755 15.5415L0.471681 15.414L13.4164 3.15V1.5C13.4164 1.10218 13.5832 0.720644 13.8802 0.43934C14.1771 0.158035 14.5799 0 14.9999 0ZM19.481 18H10.5187C10.8379 18.8554 11.4226 19.5995 12.196 20.1347C12.9694 20.6699 13.8955 20.9711 14.8528 20.999C15.8102 21.0269 16.7541 20.7801 17.5607 20.291C18.3674 19.8019 18.9992 19.0932 19.3734 18.258L19.481 18ZM24.613 15L15.1107 5.997L14.9999 6L14.8922 5.997L5.3883 15H24.613Z" fill="#6BB256"/>
</svg>
