<svg width="32" height="32" viewBox="0 0 32 32" fill="none" xmlns="http://www.w3.org/2000/svg">
<path d="M28.5098 3.5H3.4902C2.96236 3.5 2.45615 3.70581 2.08292 4.07216C1.70968 4.43851 1.5 4.93539 1.5 5.45349V25.5465C1.5 26.0646 1.70968 26.5615 2.08292 26.9278C2.45615 27.2942 2.96236 27.5 3.4902 27.5H5.39368C5.55508 27.5 5.71316 27.455 5.84955 27.3702C5.98593 27.2855 6.09503 27.1646 6.16417 27.0214C6.74015 25.8274 7.64965 24.8185 8.78689 24.112C9.92412 23.4055 11.2423 23.0304 12.5882 23.0304C13.9341 23.0304 15.2524 23.4055 16.3896 24.112C17.5268 24.8185 18.4363 25.8274 19.0123 27.0214C19.0814 27.1646 19.1905 27.2855 19.3269 27.3702C19.4633 27.455 19.6214 27.5 19.7828 27.5H28.5098C29.0376 27.5 29.5439 27.2942 29.9171 26.9278C30.2903 26.5615 30.5 26.0646 30.5 25.5465V5.45349C30.5 4.93539 30.2903 4.43851 29.9171 4.07216C29.5439 3.70581 29.0376 3.5 28.5098 3.5ZM8.89216 17.7326C8.89216 17.015 9.10893 16.3136 9.51506 15.717C9.92119 15.1204 10.4984 14.6554 11.1738 14.3808C11.8492 14.1062 12.5923 14.0344 13.3093 14.1744C14.0263 14.3143 14.6849 14.6599 15.2018 15.1672C15.7187 15.6746 16.0707 16.321 16.2133 17.0248C16.3559 17.7285 16.2827 18.458 16.003 19.1209C15.7232 19.7838 15.2495 20.3504 14.6417 20.7491C14.0338 21.1477 13.3193 21.3605 12.5882 21.3605C11.608 21.3605 10.6679 20.9782 9.97471 20.2979C9.28156 19.6175 8.89216 18.6947 8.89216 17.7326ZM28.7941 25.5465C28.7941 25.6205 28.7642 25.6915 28.7108 25.7438C28.6575 25.7962 28.5852 25.8256 28.5098 25.8256H20.3031C19.3085 24.0734 17.7276 22.7124 15.828 21.973C16.7354 21.3055 17.4057 20.3747 17.7441 19.3123C18.0825 18.25 18.0717 17.1102 17.7133 16.0542C17.3549 14.9982 16.667 14.0798 15.7472 13.4289C14.8273 12.778 13.7222 12.4278 12.5882 12.4278C11.4543 12.4278 10.3491 12.778 9.42929 13.4289C8.50946 14.0798 7.82161 14.9982 7.4632 16.0542C7.1048 17.1102 7.09402 18.25 7.43239 19.3123C7.77076 20.3747 8.44111 21.3055 9.34848 21.973C7.44887 22.7124 5.86794 24.0734 4.87338 25.8256H3.4902C3.41479 25.8256 3.34247 25.7962 3.28916 25.7438C3.23584 25.6915 3.20588 25.6205 3.20588 25.5465V5.45349C3.20588 5.37947 3.23584 5.30849 3.28916 5.25616C3.34247 5.20382 3.41479 5.17442 3.4902 5.17442H28.5098C28.5852 5.17442 28.6575 5.20382 28.7108 5.25616C28.7642 5.30849 28.7941 5.37947 28.7941 5.45349V25.5465ZM25.951 8.80233V22.1977C25.951 22.4197 25.8611 22.6327 25.7012 22.7897C25.5412 22.9467 25.3243 23.0349 25.098 23.0349H22.8235C22.5973 23.0349 22.3804 22.9467 22.2204 22.7897C22.0605 22.6327 21.9706 22.4197 21.9706 22.1977C21.9706 21.9756 22.0605 21.7627 22.2204 21.6057C22.3804 21.4487 22.5973 21.3605 22.8235 21.3605H24.2451V9.63953H7.7549V11.0349C7.7549 11.2569 7.66504 11.4699 7.50508 11.6269C7.34512 11.7839 7.12818 11.8721 6.90196 11.8721C6.67575 11.8721 6.4588 11.7839 6.29884 11.6269C6.13888 11.4699 6.04902 11.2569 6.04902 11.0349V8.80233C6.04902 8.58028 6.13888 8.36734 6.29884 8.21033C6.4588 8.05332 6.67575 7.96512 6.90196 7.96512H25.098C25.3243 7.96512 25.5412 8.05332 25.7012 8.21033C25.8611 8.36734 25.951 8.58028 25.951 8.80233Z" fill="#F08A3C"/>
</svg>
