<svg width="30" height="30" viewBox="0 0 30 30" fill="none" xmlns="http://www.w3.org/2000/svg">
<g clip-path="url(#clip0_4344_2159)">
<path d="M20.2219 26.0156C18.5906 26.7913 16.8063 27.1917 15 27.1875C8.28003 27.1875 2.81253 21.72 2.81253 15C2.81253 12.1172 3.80346 9.39469 5.62503 7.21125V9.375H7.50003V3.75H1.87503V5.625H4.5394C2.21494 8.19349 0.930802 11.5359 0.937526 15C0.937526 22.7541 7.24596 29.0625 15 29.0625C17.0853 29.0668 19.145 28.6043 21.0282 27.7087L20.2219 26.0156Z" fill="#6BB256"/>
<path d="M19.6875 8.4375C16.725 8.4375 14.2959 10.7409 14.0831 13.65C13.0525 12.7096 11.7077 12.188 10.3125 12.1875H6.5625V15.9375C6.5625 19.0397 9.08625 21.5625 12.1875 21.5625H14.0625V25.3125H15.9375V17.8125H17.8125C20.9137 17.8125 23.4375 15.2897 23.4375 12.1875V8.4375H19.6875ZM12.1875 19.6875C10.1194 19.6875 8.4375 18.0056 8.4375 15.9375V14.0625H10.3125C12.3806 14.0625 14.0625 15.7444 14.0625 17.8125V18.3619L11.9128 16.2122L10.5872 17.5378L12.7369 19.6875H12.1875ZM21.5625 12.1875C21.5625 14.2556 19.8806 15.9375 17.8125 15.9375H17.2631L19.4128 13.7878L18.0872 12.4622L15.9375 14.6119V14.0625C15.9375 11.9944 17.6194 10.3125 19.6875 10.3125H21.5625V12.1875Z" fill="#6BB256"/>
<path d="M29.0623 15C29.0623 7.24597 22.7539 0.93753 14.9998 0.93753C12.9146 0.933189 10.8548 1.39575 8.97168 2.29128L9.77793 3.98441C11.4092 3.20872 13.1935 2.80829 14.9998 2.81253C21.7198 2.81253 27.1873 8.28003 27.1873 15C27.1873 17.8828 26.1964 20.6053 24.3748 22.7888V20.625H22.4998V26.25H28.1248V24.375H25.4604C27.7849 21.8065 29.069 18.4642 29.0623 15Z" fill="#6BB256"/>
</g>
<defs>
<clipPath id="clip0_4344_2159">
<rect width="30" height="30" fill="white"/>
</clipPath>
</defs>
</svg>
