<svg width="30" height="30" viewBox="0 0 30 30" fill="none" xmlns="http://www.w3.org/2000/svg">
<path d="M27.2727 14.3182C27.2727 13.0524 26.7695 11.8388 25.8745 10.9437C24.9794 10.0487 23.7658 9.54545 22.5 9.54545H22.4694C21.7637 9.54545 21.1745 9.00711 21.1111 8.30433C20.8295 5.17797 18.2003 2.72727 15 2.72727C11.7997 2.72727 9.17052 5.17797 8.88894 8.30433C8.82555 9.00711 8.23628 9.54545 7.53063 9.54545H7.5C6.23419 9.54545 5.02059 10.0487 4.12553 10.9437C3.23047 11.8388 2.72727 13.0524 2.72727 14.3182C2.72727 15.584 3.23047 16.7976 4.12553 17.6926C5.02059 18.5877 6.23419 19.0909 7.5 19.0909H13.6364V16.2464L9.94496 12.555C9.41242 12.0225 9.41242 11.1593 9.94496 10.6268C10.4775 10.0942 11.3407 10.0942 11.8732 10.6268L13.6364 12.3899V10.9091C13.6364 10.156 14.2469 9.54545 15 9.54545C15.7531 9.54545 16.3636 10.156 16.3636 10.9091V14.4354L17.445 13.354C17.9775 12.8215 18.8407 12.8215 19.3732 13.354C19.9058 13.8866 19.9058 14.7498 19.3732 15.2823L16.3636 18.2919V19.0909H22.5C23.7658 19.0909 24.9794 18.5877 25.8745 17.6926C26.7695 16.7976 27.2727 15.584 27.2727 14.3182ZM30 14.3182C30 16.3073 29.2093 18.2144 27.8027 19.6209C26.3962 21.0274 24.4891 21.8182 22.5 21.8182H16.3636V28.6364C16.3636 29.3895 15.7531 30 15 30C14.2469 30 13.6364 29.3895 13.6364 28.6364V21.8182H7.5C5.51088 21.8182 3.60379 21.0274 2.19727 19.6209C0.790743 18.2144 0 16.3073 0 14.3182C0 12.3291 0.790743 10.422 2.19727 9.01545C3.33096 7.88175 4.78967 7.14788 6.35476 6.90607C7.24636 2.95204 10.7773 0 15 0C19.2226 0 22.7522 2.95219 23.6439 6.90607C25.2095 7.14768 26.6687 7.88143 27.8027 9.01545C29.2093 10.422 30 12.3291 30 14.3182Z" fill="#6BB256"/>
</svg>
