<svg width="30" height="30" viewBox="0 0 30 30" fill="none" xmlns="http://www.w3.org/2000/svg">
<path d="M15 23.9832C14.3164 23.9832 13.6518 23.7873 13.1094 23.4257C12.567 23.0641 12.1771 22.557 12 21.9832" stroke="#6BB256" stroke-width="2" stroke-linecap="round"/>
<path d="M12.7015 4.44365C13.6217 2.89608 14.0826 2.12157 14.7404 2.00619C14.912 1.97548 15.0879 1.97548 15.2596 2.00619C15.9173 2.12157 16.3782 2.89608 17.2984 4.44365L19.7311 8.53396C21.4311 11.3927 22.7577 14.4531 23.6791 17.642C25.1769 22.8241 21.2435 27.9832 15.7919 27.9832H14.208C8.75787 27.9832 4.82302 22.8241 6.32083 17.642C7.24223 14.4531 8.5688 11.3927 10.2688 8.53396L12.7015 4.44365Z" stroke="#6BB256" stroke-width="2"/>
</svg>
