<svg width="30" height="30" viewBox="0 0 30 30" fill="none" xmlns="http://www.w3.org/2000/svg">
<path d="M23.125 4C23.3731 4.00012 23.6152 4.0727 23.8191 4.20804C24.0229 4.34337 24.1788 4.53503 24.2657 4.75739C24.9613 6.52722 26.2206 7.11042 26.7812 7.11042C27.1045 7.11042 27.4145 7.23331 27.643 7.45205C27.8716 7.6708 28 7.96748 28 8.27683C28 8.58618 27.8716 8.88286 27.643 9.1016C27.4145 9.32035 27.1045 9.44323 26.7812 9.44323C25.4861 9.44323 24.1374 8.73406 23.1201 7.51322C22.0574 8.75583 20.6063 9.44168 19.0625 9.44168C17.5155 9.44323 16.0627 8.75272 15 7.507C13.9373 8.75272 12.4845 9.44323 10.9375 9.44323C9.39375 9.44323 7.94425 8.75583 6.8815 7.51477C5.86425 8.73561 4.5155 9.4479 3.21875 9.4479C2.89552 9.4479 2.58552 9.32501 2.35696 9.10627C2.1284 8.88752 2 8.59084 2 8.28149C2 7.97214 2.1284 7.67546 2.35696 7.45672C2.58552 7.23797 2.89552 7.11509 3.21875 7.11509C3.77775 7.11509 5.03875 6.53033 5.73425 4.75739C5.82151 4.53532 5.97745 4.344 6.18128 4.20895C6.3851 4.0739 6.6271 4.00156 6.875 4.00156C7.1229 4.00156 7.3649 4.0739 7.56872 4.20895C7.77255 4.344 7.92849 4.53532 8.01575 4.75739C8.682 6.45723 9.90725 7.11042 10.9375 7.11042C11.9677 7.11042 13.193 6.45723 13.8593 4.75739C13.9465 4.53532 14.1025 4.344 14.3063 4.20895C14.5101 4.0739 14.7521 4.00156 15 4.00156C15.2479 4.00156 15.4899 4.0739 15.6937 4.20895C15.8975 4.344 16.0535 4.53532 16.1407 4.75739C16.807 6.45723 18.0322 7.11042 19.0625 7.11042C20.0928 7.11042 21.318 6.45723 21.9843 4.75739C22.0712 4.53503 22.2271 4.34337 22.4309 4.20804C22.6348 4.0727 22.8769 4.00012 23.125 4ZM23.125 11.776C23.3731 11.7762 23.6152 11.8487 23.8191 11.9841C24.0229 12.1194 24.1788 12.3111 24.2657 12.5334C24.9596 14.3033 26.2206 14.8865 26.7812 14.8865C27.1045 14.8865 27.4145 15.0094 27.643 15.2281C27.8716 15.4468 28 15.7435 28 16.0529C28 16.3622 27.8716 16.6589 27.643 16.8777C27.4145 17.0964 27.1045 17.2193 26.7812 17.2193C25.4861 17.2193 24.1374 16.5101 23.1201 15.2893C22.0574 16.5319 20.6063 17.2177 19.0625 17.2177C17.5155 17.2193 16.0627 16.5288 15 15.283C13.9373 16.5288 12.4845 17.2193 10.9375 17.2193C9.39375 17.2193 7.94425 16.5319 6.8815 15.2908C5.86425 16.5132 4.5155 17.2224 3.21875 17.224C2.89552 17.224 2.58552 17.1011 2.35696 16.8823C2.1284 16.6636 2 16.3669 2 16.0575C2 15.7482 2.1284 15.4515 2.35696 15.2328C2.58552 15.014 2.89552 14.8911 3.21875 14.8911C3.77775 14.8911 5.03875 14.3064 5.73425 12.5334C5.82151 12.3114 5.97745 12.12 6.18128 11.985C6.3851 11.85 6.6271 11.7776 6.875 11.7776C7.1229 11.7776 7.3649 11.85 7.56872 11.985C7.77255 12.12 7.92849 12.3114 8.01575 12.5334C8.682 14.2333 9.90725 14.8865 10.9375 14.8865C11.9677 14.8865 13.193 14.2333 13.8593 12.5334C13.9465 12.3114 14.1025 12.12 14.3063 11.985C14.5101 11.85 14.7521 11.7776 15 11.7776C15.2479 11.7776 15.4899 11.85 15.6937 11.985C15.8975 12.12 16.0535 12.3114 16.1407 12.5334C16.807 14.2333 18.0322 14.8865 19.0625 14.8865C20.0928 14.8865 21.318 14.2333 21.9843 12.5334C22.0712 12.3111 22.2271 12.1194 22.4309 11.9841C22.6348 11.8487 22.8769 11.7762 23.125 11.776ZM24.2657 20.3095C24.1785 20.0874 24.0225 19.8961 23.8187 19.7611C23.6149 19.626 23.3729 19.5537 23.125 19.5537C22.8771 19.5537 22.6351 19.626 22.4313 19.7611C22.2275 19.8961 22.0715 20.0874 21.9843 20.3095C21.318 22.0093 20.0928 22.6625 19.0625 22.6625C18.0322 22.6625 16.807 22.0093 16.1407 20.3095C16.0535 20.0874 15.8975 19.8961 15.6937 19.7611C15.4899 19.626 15.2479 19.5537 15 19.5537C14.7521 19.5537 14.5101 19.626 14.3063 19.7611C14.1025 19.8961 13.9465 20.0874 13.8593 20.3095C13.193 22.0093 11.9677 22.6625 10.9375 22.6625C9.90725 22.6625 8.682 22.0093 8.01575 20.3095C7.92849 20.0874 7.77255 19.8961 7.56872 19.7611C7.3649 19.626 7.1229 19.5537 6.875 19.5537C6.6271 19.5537 6.3851 19.626 6.18128 19.7611C5.97745 19.8961 5.82151 20.0874 5.73425 20.3095C5.04037 22.0824 3.77775 22.6656 3.21875 22.6672C2.89552 22.6672 2.58552 22.7901 2.35696 23.0088C2.1284 23.2276 2 23.5242 2 23.8336C2 24.1429 2.1284 24.4396 2.35696 24.6584C2.58552 24.8771 2.89552 25 3.21875 25C4.5155 25 5.86425 24.2893 6.8815 23.0653C7.94425 24.3095 9.39375 24.9953 10.9375 24.9953C12.4845 24.9953 13.9373 24.3048 15 23.0591C16.0627 24.3048 17.5155 24.9953 19.0625 24.9953C20.6063 24.9953 22.0574 24.3079 23.1201 23.0653C24.1374 24.2862 25.4861 24.9938 26.7812 24.9938C27.1045 24.9938 27.4145 24.8709 27.643 24.6521C27.8716 24.4334 28 24.1367 28 23.8274C28 23.518 27.8716 23.2213 27.643 23.0026C27.4145 22.7839 27.1045 22.661 26.7812 22.661C26.2206 22.661 24.9613 22.0793 24.2657 20.3095Z" fill="#6BB256"/>
</svg>
